<?xml version="1.0" encoding="utf-8"?>
<!-- Generator: Adobe Illustrator 25.4.1, SVG Export Plug-In . SVG Version: 6.00 Build 0)  -->
<svg version="1.1" id="Layer_1" xmlns="http://www.w3.org/2000/svg" xmlns:xlink="http://www.w3.org/1999/xlink" x="0px" y="0px"
	 viewBox="0 0 50 50" style="enable-background:new 0 0 50 50;" xml:space="preserve">
<style type="text/css">
	.st0{fill:#1D1D1B;}
	.st1{clip-path:url(#SVGID_00000101078992311203511040000013738807220254688153_);}
	.st2{fill:#575756;}
	.st3{fill:#FFFFFF;}
</style>
<g id="Layer_2_00000016041488977314466640000013494346253848100515_">
	<g id="BG_black">
		<g id="PEGI_repeat">
			<rect class="st0" width="50" height="50"/>
			<g>
				<defs>
					<rect id="SVGID_1_" width="50" height="50"/>
				</defs>
				<clipPath id="SVGID_00000008131823135965596600000013839019163476724142_">
					<use xlink:href="#SVGID_1_"  style="overflow:visible;"/>
				</clipPath>
				<g style="clip-path:url(#SVGID_00000008131823135965596600000013839019163476724142_);">
					<path class="st2" d="M-0.3,10.5l-3.3-4.3l1.1-0.9l3.3,4.3L-0.3,10.5z"/>
					<path class="st2" d="M2.9,8.1l-3.3-4.3l1.3-1C1.8,2,2.6,2,3.3,3S4,4.6,2.9,5.4L2.7,5.5L4,7.2L2.9,8.1z M2.1,4.7
						c0.4-0.3,0.5-0.5,0.1-0.9S1.8,3.4,1.3,3.7L2.1,4.7z"/>
					<path class="st2" d="M5.9,5.8L2.7,1.5l2.5-1.9l0.7,0.9l-1.3,1L5,2.2l1.1-0.8l0.7,0.9L5.7,3.2L6.4,4l1.4-1.1l0.7,0.9L5.9,5.8z"
						/>
					<path class="st2" d="M9.1,1.6c0.2,0.3,0.4,0.3,0.6,0.1s0.2-0.3,0-0.6L9.4,0.7L9.1,0.9L8.5,0.1L9.9-1l1.8,2.4l-0.6,0.4l-0.3-0.1
						c-0.1,0.4-0.3,0.7-0.6,0.9C9,3.5,8.4,3.2,7.2,1.5S5.9-1.1,7-1.9c0.5-0.5,1.3-0.6,1.9-0.3c0.2,0.2,0.5,0.4,0.6,0.7L8.4-0.6
						L8.2-0.9C8-1.1,7.8-1.1,7.6-1s-0.2,0.3,0,0.6L9.1,1.6z"/>
					<path class="st2" d="M12.4,0.9L9.1-3.4l1.1-0.9l3.3,4.3L12.4,0.9z"/>
					<path class="st2" d="M1,18.6l-3.3-4.3l1.3-1c0.9-0.7,1.6-0.8,2.4,0.3S2,15.2,1,16l-0.2,0.1l1.3,1.7L1,18.6z M0.2,15.3
						c0.4-0.3,0.5-0.5,0.1-0.9s-0.5-0.4-0.9-0.1L0.2,15.3z"/>
					<path class="st2" d="M4,16.4l-3.3-4.3l2.5-1.9l0.7,0.9l-1.3,1l0.5,0.7L4.2,12l0.7,0.9l-1.1,0.8l0.6,0.9l1.4-1.1l0.7,0.9L4,16.4
						z"/>
					<path class="st2" d="M7.1,12.2c0.2,0.3,0.4,0.3,0.6,0.1s0.2-0.3,0-0.6l-0.3-0.4l-0.3,0.2l-0.6-0.8l1.4-1.1L9.8,12l-0.6,0.4
						l-0.3-0.1c-0.1,0.4-0.3,0.7-0.6,0.9c-1.1,0.9-1.8,0.5-3-1.2S3.9,9.6,5,8.7c0.5-0.5,1.3-0.6,1.9-0.3c0.2,0.2,0.5,0.4,0.6,0.7
						L6.4,10L6.2,9.8C6,9.5,5.8,9.5,5.7,9.6s-0.2,0.3,0,0.6L7.1,12.2z"/>
					<path class="st2" d="M10.4,11.5L7.2,7.2l1.1-0.9l3.3,4.3L10.4,11.5z"/>
					<path class="st2" d="M13.6,9.1l-3.3-4.3l1.3-1C12.6,3.1,13.3,3,14.1,4s0.6,1.6-0.4,2.4l-0.2,0.2l1.3,1.7L13.6,9.1z M12.9,5.8
						c0.4-0.3,0.5-0.5,0.1-0.9s-0.5-0.4-0.9-0.1L12.9,5.8z"/>
					<path class="st2" d="M16.7,6.8l-3.3-4.3l2.5-1.9l0.7,0.9l-1.3,1l0.6,0.7l1.1-0.8l0.7,0.9l-1.1,0.8L17.1,5l1.4-1l0.7,0.9
						L16.7,6.8z"/>
					<path class="st2" d="M19.8,2.6c0.2,0.3,0.4,0.3,0.6,0.1s0.2-0.3,0-0.6l-0.3-0.4L19.8,2l-0.6-0.8l1.4-1.1l1.8,2.4l-0.6,0.4
						l-0.3-0.1c-0.1,0.4-0.3,0.7-0.6,0.9c-1.1,0.9-1.7,0.5-3-1.2S16.6,0,17.7-0.8c0.5-0.5,1.3-0.6,1.9-0.2c0.2,0.2,0.5,0.4,0.6,0.7
						l-1.1,0.8l-0.2-0.3c-0.2-0.3-0.4-0.3-0.6-0.1s-0.2,0.3,0,0.6L19.8,2.6z"/>
					<path class="st2" d="M23.1,2l-3.3-4.3L21-3.2l3.3,4.3L23.1,2z"/>
					<path class="st2" d="M-1,29.3L-4.3,25l1.3-1c0.9-0.7,1.6-0.7,2.4,0.3S0,25.8-1,26.6l-0.2,0.1l1.3,1.7L-1,29.3z M-1.8,26
						c0.4-0.3,0.5-0.5,0.1-1s-0.5-0.4-0.9-0.1L-1.8,26z"/>
					<path class="st2" d="M2,27l-3.3-4.3l2.5-1.9l0.7,0.9l-1.3,1l0.6,0.7l1.1-0.8l0.7,0.9l-1.1,0.8l0.6,0.8l1.4-1l0.7,0.9L2,27z"/>
					<path class="st2" d="M5.2,22.8c0.2,0.3,0.4,0.3,0.6,0.1s0.2-0.3,0-0.6l-0.3-0.4l-0.3,0.2l-0.6-0.8L6,20.2l1.8,2.4l-0.6,0.4
						L6.9,23c-0.1,0.4-0.3,0.7-0.6,0.9c-1.1,0.9-1.8,0.5-3-1.2S2,20.2,3,19.3c0.5-0.5,1.3-0.6,2-0.3c0.2,0.2,0.5,0.4,0.6,0.7
						l-1.1,0.9l-0.2-0.3c-0.2-0.3-0.4-0.3-0.6-0.1s-0.2,0.3,0,0.6L5.2,22.8z"/>
					<path class="st2" d="M8.5,22.1l-3.3-4.3L6.3,17l3.3,4.3L8.5,22.1z"/>
					<path class="st2" d="M11.7,19.7l-3.3-4.3l1.3-1c0.9-0.7,1.6-0.8,2.4,0.3s0.6,1.6-0.4,2.4l-0.2,0.1l1.3,1.7L11.7,19.7z
						 M10.9,16.4c0.4-0.3,0.5-0.5,0.1-0.9s-0.5-0.4-0.9-0.1L10.9,16.4z"/>
					<path class="st2" d="M14.7,17.4l-3.3-4.3l2.5-1.9l0.7,0.9l-1.3,1l0.6,0.7l1.1-0.8l0.7,0.9l-1.1,0.8l0.6,0.8l1.4-1.1l0.7,0.9
						L14.7,17.4z"/>
					<path class="st2" d="M17.9,13.2c0.2,0.3,0.4,0.3,0.6,0.1s0.2-0.3,0-0.6l-0.3-0.4l-0.3,0.2l-0.6-0.8l1.4-1.1l1.8,2.4l-0.6,0.4
						l-0.3-0.1c-0.1,0.4-0.3,0.7-0.6,0.9c-1.1,0.9-1.8,0.5-3-1.2s-1.3-2.5-0.2-3.3c0.5-0.5,1.3-0.6,1.9-0.3c0.2,0.2,0.5,0.4,0.6,0.7
						l-1.1,0.9L17,10.8c-0.2-0.3-0.4-0.3-0.6-0.1s-0.2,0.3,0,0.6L17.9,13.2z"/>
					<path class="st2" d="M21.1,12.6l-3.3-4.3L19,7.4l3.3,4.3L21.1,12.6z"/>
					<path class="st2" d="M24.4,10.1l-3.3-4.3l1.3-1c0.9-0.7,1.6-0.8,2.4,0.3s0.6,1.6-0.4,2.4l-0.2,0.2l1.3,1.7L24.4,10.1z
						 M23.6,6.8c0.4-0.3,0.5-0.5,0.1-0.9s-0.5-0.4-0.9-0.1L23.6,6.8z"/>
					<path class="st2" d="M27.4,7.9l-3.3-4.3l2.5-1.9l0.7,0.9l-1.3,1l0.5,0.7l1.1-0.8l0.7,0.9l-1.1,0.8l0.6,0.8l1.4-1L30,6L27.4,7.9
						z"/>
					<path class="st2" d="M30.5,3.7c0.2,0.3,0.4,0.3,0.6,0.1s0.2-0.3,0-0.6l-0.3-0.4L30.5,3l-0.6-0.8l1.4-1.1l1.8,2.4L32.6,4
						l-0.3-0.1c-0.1,0.4-0.3,0.7-0.6,0.9c-1.1,0.9-1.8,0.5-3-1.2S27.3,1,28.4,0.2c0.5-0.5,1.3-0.6,1.9-0.2c0.2,0.2,0.5,0.4,0.6,0.6
						l-1.1,0.9l-0.2-0.3C29.5,1,29.3,1,29.1,1.1s-0.2,0.3,0,0.6L30.5,3.7z"/>
					<path class="st2" d="M33.8,3l-3.3-4.3l1.1-0.9L35,2.2L33.8,3z"/>
					<path class="st2" d="M37.1,0.6l-3.3-4.3l1.3-1c0.9-0.7,1.6-0.8,2.4,0.3s0.7,1.6-0.4,2.4L36.9-2l1.3,1.7L37.1,0.6z M36.3-2.7
						c0.4-0.3,0.5-0.5,0.1-0.9s-0.5-0.4-0.9-0.1L36.3-2.7z"/>
					<path class="st2" d="M-3,39.9l-3.2-4.3l1.3-1c0.9-0.7,1.6-0.7,2.4,0.3s0.6,1.6-0.4,2.4l-0.2,0.2l1.3,1.7L-3,39.9z M-3.7,36.6
						c0.4-0.3,0.5-0.5,0.1-1s-0.5-0.4-0.9-0.1L-3.7,36.6z"/>
					<path class="st2" d="M0.1,37.6l-3.3-4.3l2.5-1.9L0,32.3l-1.3,1l0.6,0.7l1.1-0.8L1,34.1L-0.1,35l0.6,0.8l1.4-1l0.7,0.9L0.1,37.6
						z"/>
					<path class="st2" d="M3.2,33.4c0.2,0.3,0.4,0.3,0.6,0.1s0.2-0.3,0-0.6l-0.3-0.4l-0.3,0.2l-0.6-0.8L4,30.9l1.8,2.4l-0.6,0.4
						l-0.3-0.1c-0.1,0.4-0.3,0.7-0.6,0.9c-1.1,0.8-1.7,0.5-3-1.2S0,30.8,1.1,29.9c0.5-0.5,1.3-0.6,1.9-0.3c0.2,0.2,0.5,0.4,0.6,0.7
						l-1.1,0.9L2.3,31c-0.2-0.3-0.4-0.3-0.6-0.1s-0.2,0.3,0,0.6L3.2,33.4z"/>
					<path class="st2" d="M6.5,32.8l-3.3-4.3l1.1-0.9l3.3,4.3L6.5,32.8z"/>
					<path class="st2" d="M9.7,30.3L6.5,26l1.3-1c0.9-0.7,1.6-0.8,2.4,0.3s0.6,1.6-0.4,2.4l-0.2,0.1l1.3,1.7L9.7,30.3z M9,27
						c0.4-0.3,0.5-0.5,0.1-1s-0.5-0.4-0.9-0.1L9,27z"/>
					<path class="st2" d="M12.8,28l-3.3-4.3l2.5-1.8l0.7,0.9l-1.3,1l0.6,0.7l1.1-0.8l0.7,0.9l-1.1,0.8l0.6,0.8l1.4-1l0.7,0.9
						L12.8,28z"/>
					<path class="st2" d="M15.9,23.8c0.2,0.3,0.4,0.3,0.6,0.1s0.2-0.3,0-0.6L16.2,23l-0.3,0.2l-0.6-0.8l1.4-1.1l1.8,2.4L18,24.2
						L17.6,24c-0.1,0.4-0.3,0.8-0.6,1c-1.1,0.9-1.8,0.5-3-1.2s-1.3-2.5-0.2-3.4c0.5-0.5,1.3-0.6,1.9-0.3c0.2,0.2,0.5,0.4,0.6,0.7
						l-1.1,0.9L15,21.4c-0.2-0.3-0.4-0.3-0.6-0.1s-0.2,0.3,0,0.6L15.9,23.8z"/>
					<path class="st2" d="M19.2,23.2l-3.3-4.3l1.1-0.9l3.3,4.3L19.2,23.2z"/>
					<path class="st2" d="M22.4,20.8l-3.3-4.3l1.3-1c0.9-0.7,1.6-0.8,2.4,0.3s0.6,1.6-0.4,2.4l-0.2,0.1l1.3,1.7L22.4,20.8z
						 M21.6,17.4c0.4-0.3,0.5-0.5,0.1-0.9s-0.5-0.4-0.9-0.1L21.6,17.4z"/>
					<path class="st2" d="M25.4,18.5l-3.3-4.3l2.5-1.9l0.7,0.9l-1.3,1l0.5,0.7l1.1-0.8l0.7,0.9l-1.1,0.8l0.6,0.8l1.4-1l0.7,0.9
						L25.4,18.5z"/>
					<path class="st2" d="M28.6,14.3c0.2,0.3,0.4,0.3,0.6,0.1s0.2-0.3,0-0.6l-0.3-0.4l-0.3,0.2L28,12.8l1.4-1.1l1.8,2.4l-0.6,0.4
						l-0.3-0.1c-0.1,0.4-0.3,0.7-0.6,0.9c-1.1,0.9-1.8,0.5-3-1.2s-1.3-2.5-0.2-3.3c0.5-0.5,1.3-0.6,1.9-0.3c0.2,0.2,0.5,0.4,0.6,0.7
						l-1.1,0.9l-0.2-0.3c-0.2-0.3-0.4-0.3-0.6-0.1s-0.2,0.3,0,0.6L28.6,14.3z"/>
					<path class="st2" d="M31.9,13.6l-3.3-4.3l1.1-0.9l3.2,4.3L31.9,13.6z"/>
					<path class="st2" d="M35.1,11.2l-3.3-4.3l1.3-1c0.9-0.7,1.6-0.8,2.4,0.3s0.7,1.6-0.4,2.4l-0.2,0.1l1.3,1.7L35.1,11.2z
						 M34.3,7.9c0.4-0.3,0.5-0.5,0.1-0.9S34,6.5,33.5,6.8L34.3,7.9z"/>
					<path class="st2" d="M38.1,8.9l-3.3-4.3l2.5-1.9L38,3.6l-1.3,1l0.5,0.7l1.1-0.8L39,5.5l-1.1,0.8l0.6,0.8l1.4-1l0.7,0.9
						L38.1,8.9z"/>
					<path class="st2" d="M41.3,4.7C41.5,5,41.7,5,41.9,4.8s0.2-0.3,0-0.6l-0.3-0.4L41.3,4l-0.6-0.8l1.4-1.1l1.8,2.4L43.3,5L43,4.9
						c-0.1,0.4-0.3,0.7-0.6,0.9c-1.1,0.9-1.8,0.5-3-1.2s-1.3-2.5-0.2-3.3c0.5-0.5,1.3-0.6,1.9-0.3c0.2,0.2,0.5,0.4,0.6,0.7l-1.1,0.9
						l-0.2-0.3C40.2,2,40,2,39.8,2.2s-0.2,0.3,0,0.6L41.3,4.7z"/>
					<path class="st2" d="M44.6,4.1l-3.3-4.3l1.1-0.9l3.3,4.3L44.6,4.1z"/>
					<path class="st2" d="M47.8,1.6l-3.3-4.3l1.3-1c0.9-0.7,1.6-0.7,2.4,0.3s0.6,1.6-0.4,2.4l-0.2,0.1l1.3,1.7L47.8,1.6z M47-1.7
						c0.4-0.3,0.5-0.5,0.1-0.9S46.6-3,46.2-2.7L47-1.7z"/>
					<path class="st2" d="M-1.9,48.2l-3.3-4.3l2.5-1.9l0.7,0.9l-1.3,1l0.6,0.7l1.1-0.8l0.7,0.9l-1.1,0.8l0.6,0.8l1.4-1l0.7,0.9
						L-1.9,48.2z"/>
					<path class="st2" d="M1.3,44c0.2,0.3,0.4,0.3,0.6,0.1s0.2-0.3,0-0.6l-0.3-0.4l-0.3,0.2l-0.6-0.8l1.4-1.1l1.8,2.4l-0.6,0.4
						L3,44.2c-0.1,0.4-0.3,0.7-0.6,0.9c-1.1,0.8-1.7,0.5-3-1.2s-1.3-2.5-0.2-3.4c0.5-0.5,1.3-0.6,1.9-0.3c0.2,0.2,0.5,0.4,0.6,0.7
						l-1.1,0.9l-0.2-0.2c-0.2-0.3-0.4-0.3-0.6-0.1s-0.2,0.3,0,0.6L1.3,44z"/>
					<path class="st2" d="M4.6,43.4L1.3,39l1.1-0.8l3.3,4.3L4.6,43.4z"/>
					<path class="st2" d="M7.8,40.9l-3.3-4.3l1.3-1c0.9-0.7,1.6-0.7,2.4,0.3s0.6,1.6-0.4,2.4l-0.2,0.1l1.3,1.7L7.8,40.9z M7,37.6
						c0.4-0.3,0.5-0.5,0.1-1s-0.5-0.4-0.9-0.1L7,37.6z"/>
					<path class="st2" d="M10.8,38.7l-3.3-4.3l2.4-1.9l0.7,0.9l-1.3,1l0.6,0.7l1.1-0.8l0.7,0.9L10.6,36l0.6,0.8l1.4-1l0.7,0.9
						L10.8,38.7z"/>
					<path class="st2" d="M14,34.4c0.2,0.3,0.4,0.3,0.6,0.1s0.2-0.3,0-0.6l-0.3-0.4L14,33.8L13.4,33l1.4-1.1l1.8,2.4L16,34.8
						l-0.3-0.1c-0.1,0.4-0.3,0.7-0.6,0.9c-1.1,0.8-1.8,0.5-3-1.2s-1.3-2.5-0.2-3.4c0.5-0.5,1.3-0.6,1.9-0.3c0.2,0.2,0.5,0.4,0.6,0.7
						l-1.1,0.9L13.1,32c-0.2-0.3-0.4-0.3-0.6-0.1s-0.2,0.3,0,0.6L14,34.4z"/>
					<path class="st2" d="M17.3,33.8L14,29.5l1.1-0.9l3.2,4.3L17.3,33.8z"/>
					<path class="st2" d="M20.5,31.4l-3.3-4.3l1.3-1c0.9-0.7,1.6-0.8,2.4,0.3s0.6,1.6-0.4,2.4l-0.2,0.1l1.3,1.7L20.5,31.4z
						 M19.7,28.1c0.4-0.3,0.5-0.5,0.1-0.9s-0.5-0.4-0.9-0.1L19.7,28.1z"/>
					<path class="st2" d="M23.5,29.1l-3.3-4.3l2.5-1.9l0.7,0.9l-1.3,1l0.6,0.7l1.1-0.8l0.7,0.9l-1.1,0.8l0.6,0.9l1.4-1.1l0.7,0.9
						L23.5,29.1z"/>
					<path class="st2" d="M26.6,24.9c0.2,0.3,0.4,0.3,0.6,0.1s0.2-0.3,0-0.6L26.9,24l-0.3,0.2L26,23.4l1.4-1.1l1.8,2.4l-0.6,0.4
						l-0.3-0.1c-0.1,0.4-0.3,0.7-0.6,0.9c-1.1,0.9-1.7,0.5-3-1.2s-1.3-2.5-0.2-3.4c0.5-0.5,1.3-0.6,1.9-0.3c0.2,0.2,0.5,0.4,0.6,0.7
						L26,22.7l-0.2-0.3c-0.2-0.3-0.4-0.3-0.6-0.1s-0.2,0.3,0,0.6L26.6,24.9z"/>
					<path class="st2" d="M29.9,24.2l-3.3-4.3l1.1-0.9l3.3,4.3L29.9,24.2z"/>
					<path class="st2" d="M33.2,21.8l-3.3-4.3l1.3-1c0.9-0.7,1.6-0.8,2.4,0.3s0.7,1.6-0.4,2.4L33,19.3l1.3,1.7L33.2,21.8z
						 M32.4,18.5c0.4-0.3,0.5-0.5,0.1-0.9s-0.5-0.4-0.9-0.1L32.4,18.5z"/>
					<path class="st2" d="M36.2,19.5l-3.3-4.3l2.5-1.9l0.7,0.9l-1.3,1l0.5,0.7l1.1-0.8l0.7,0.9L36,16.9l0.6,0.8l1.4-1l0.7,0.9
						L36.2,19.5z"/>
					<path class="st2" d="M39.3,15.3c0.2,0.3,0.4,0.3,0.6,0.1s0.2-0.3,0-0.6l-0.3-0.4l-0.3,0.2l-0.6-0.8l1.4-1.1l1.9,2.4l-0.6,0.4
						l-0.3-0.1c-0.1,0.4-0.3,0.7-0.6,0.9c-1.1,0.9-1.8,0.5-3-1.2s-1.3-2.5-0.2-3.3c0.5-0.5,1.3-0.6,1.9-0.3c0.2,0.2,0.5,0.4,0.6,0.7
						l-1.1,0.9l-0.2-0.3c-0.2-0.3-0.4-0.3-0.6-0.1s-0.2,0.3,0,0.6L39.3,15.3z"/>
					<path class="st2" d="M42.6,14.7l-3.3-4.3l1.1-0.9l3.3,4.3L42.6,14.7z"/>
					<path class="st2" d="M45.8,12.3l-3.3-4.3l1.3-1c0.9-0.7,1.6-0.7,2.4,0.3s0.6,1.6-0.4,2.4l-0.2,0.1l1.3,1.7L45.8,12.3z
						 M45.1,8.9c0.4-0.3,0.5-0.5,0.1-0.9s-0.5-0.4-0.9-0.1L45.1,8.9z"/>
					<path class="st2" d="M48.9,10l-3.3-4.3l2.5-1.9l0.7,0.9l-1.3,1L48,6.4l1.1-0.8l0.7,0.9l-1.1,0.8l0.6,0.8l1.4-1l0.7,0.9L48.9,10
						z"/>
					<path class="st2" d="M52,5.8C52.2,6,52.4,6,52.6,5.9s0.2-0.3,0-0.6l-0.3-0.4L52,5.1l-0.6-0.8l1.4-1.1l1.8,2.4L54,6.1L53.7,6
						c-0.1,0.4-0.3,0.7-0.6,0.9c-1.1,0.8-1.8,0.5-3-1.2s-1.3-2.5-0.2-3.3c0.5-0.5,1.3-0.6,1.9-0.3c0.2,0.2,0.5,0.4,0.6,0.7l-1.1,0.9
						l-0.2-0.3c-0.2-0.3-0.4-0.3-0.6-0.1s-0.2,0.3,0,0.6L52,5.8z"/>
					<path class="st2" d="M2.6,54l-3.3-4.3l1.1-0.9l3.3,4.3L2.6,54z"/>
					<path class="st2" d="M5.8,51.5l-3.3-4.3l1.3-1c0.9-0.7,1.6-0.7,2.4,0.3s0.6,1.6-0.4,2.4L5.7,49l1.3,1.7L5.8,51.5z M5.1,48.2
						c0.4-0.3,0.5-0.5,0.1-1s-0.5-0.4-0.9-0.1L5.1,48.2z"/>
					<path class="st2" d="M8.9,49.3l-3.2-4.3l2.5-1.9L8.8,44l-1.3,1L8,45.7l1.1-0.8l0.7,0.9l-1.1,0.8l0.6,0.8l1.4-1l0.7,0.9
						L8.9,49.3z"/>
					<path class="st2" d="M12,45c0.2,0.3,0.4,0.3,0.6,0.1s0.2-0.3,0-0.6l-0.3-0.4L12,44.4l-0.6-0.8l1.4-1.1l1.8,2.4L14,45.3
						l-0.3-0.1c-0.1,0.4-0.3,0.7-0.6,0.9c-1.1,0.8-1.8,0.5-3-1.2s-1.3-2.5-0.2-3.4c0.5-0.5,1.3-0.6,1.9-0.3c0.2,0.2,0.5,0.4,0.6,0.7
						l-1.1,0.9l-0.2-0.3c-0.2-0.3-0.4-0.3-0.6-0.1s-0.2,0.3,0,0.6L12,45z"/>
					<path class="st2" d="M15.3,44.4L12,40.1l1.1-0.8l3.2,4.3L15.3,44.4z"/>
					<path class="st2" d="M18.5,42l-3.3-4.3l1.3-1C17.5,36,18.2,36,19,37s0.6,1.6-0.4,2.4l-0.2,0.1l1.3,1.7L18.5,42z M17.8,38.7
						c0.4-0.3,0.5-0.5,0.1-1s-0.5-0.4-0.9-0.1L17.8,38.7z"/>
					<path class="st2" d="M21.5,39.7l-3.3-4.3l2.5-1.8l0.7,0.9l-1.3,1l0.6,0.7l1.1-0.8l0.7,0.9l-1.1,0.8l0.6,0.8l1.4-1.1l0.7,0.9
						L21.5,39.7z"/>
					<path class="st2" d="M24.7,35.5c0.2,0.3,0.4,0.3,0.6,0.1s0.2-0.3,0-0.6L25,34.6l-0.3,0.2L24.1,34l1.4-1l1.8,2.4l-0.6,0.4
						l-0.3-0.1c-0.1,0.4-0.3,0.7-0.6,0.9c-1.1,0.8-1.7,0.5-3-1.2s-1.3-2.5-0.2-3.4c0.5-0.5,1.3-0.6,1.9-0.3c0.2,0.2,0.5,0.4,0.6,0.7
						L24,33.3l-0.2-0.3c-0.2-0.3-0.4-0.3-0.6-0.1s-0.2,0.3,0,0.6L24.7,35.5z"/>
					<path class="st2" d="M28,34.8l-3.3-4.3l1.1-0.9l3.2,4.3L28,34.8z"/>
					<path class="st2" d="M31.2,32.4L28,28.1l1.3-1c0.9-0.7,1.6-0.8,2.4,0.3c0.7,1,0.6,1.6-0.4,2.4l-0.2,0.1l1.3,1.7L31.2,32.4z
						 M30.4,29.1c0.4-0.3,0.5-0.5,0.1-0.9s-0.5-0.4-0.9-0.1L30.4,29.1z"/>
					<path class="st2" d="M34.2,30.1L31,25.8l2.5-1.8l0.7,0.9l-1.3,1l0.5,0.7l1.1-0.8l0.7,0.9L34,27.5l0.6,0.8l1.4-1.1l0.7,0.9
						L34.2,30.1z"/>
					<path class="st2" d="M37.4,25.9c0.2,0.3,0.4,0.3,0.6,0.1s0.2-0.3,0-0.6l-0.3-0.4l-0.3,0.2l-0.6-0.8l1.4-1.1l1.8,2.4l-0.6,0.4
						L39,26.1c-0.1,0.4-0.3,0.7-0.6,0.9c-1.1,0.9-1.8,0.5-3-1.2s-1.3-2.5-0.2-3.4c0.5-0.5,1.3-0.6,1.9-0.3c0.3,0.2,0.5,0.4,0.6,0.7
						l-1.1,0.9l-0.2-0.3c-0.2-0.3-0.4-0.3-0.6-0.1s-0.2,0.3,0,0.6L37.4,25.9z"/>
					<path class="st2" d="M40.7,25.3L37.4,21l1.1-0.9l3.3,4.3L40.7,25.3z"/>
					<path class="st2" d="M43.9,22.9l-3.3-4.3l1.3-1c0.9-0.7,1.6-0.8,2.4,0.3s0.6,1.6-0.4,2.4l-0.2,0.1L45,22L43.9,22.9z M43.1,19.5
						c0.4-0.3,0.5-0.5,0.1-0.9s-0.5-0.4-0.9-0.1L43.1,19.5z"/>
					<path class="st2" d="M46.9,20.6l-3.3-4.3l2.5-1.9l0.7,0.9l-1.3,1L46,17l1.1-0.8l0.7,0.9l-1.1,0.8l0.6,0.8l1.4-1l0.7,0.9
						L46.9,20.6z"/>
					<path class="st2" d="M50.1,16.4c0.2,0.3,0.4,0.3,0.6,0.1s0.2-0.3,0-0.6l-0.3-0.4L50,15.7l-0.6-0.8l1.4-1.1l1.8,2.4l-0.6,0.4
						l-0.3-0.1c-0.1,0.4-0.3,0.7-0.6,0.9c-1.1,0.9-1.7,0.5-3-1.2s-1.3-2.5-0.2-3.4c0.5-0.5,1.3-0.6,1.9-0.3c0.2,0.2,0.5,0.4,0.6,0.7
						l-1.1,0.9l-0.2-0.3c-0.2-0.3-0.4-0.3-0.6-0.1s-0.2,0.3,0,0.6L50.1,16.4z"/>
					<path class="st2" d="M53.3,15.7l-3.3-4.3l1.1-0.9l3.3,4.3L53.3,15.7z"/>
					<path class="st2" d="M16.6,52.6l-3.3-4.3l1.3-1c0.9-0.7,1.6-0.7,2.4,0.3s0.6,1.6-0.4,2.4L16.4,50l1.3,1.7L16.6,52.6z
						 M15.8,49.3c0.4-0.3,0.5-0.5,0.1-1s-0.5-0.4-0.9-0.1L15.8,49.3z"/>
					<path class="st2" d="M19.6,50.3L16.4,46l2.5-1.8l0.7,0.9l-1.3,1l0.6,0.7l1.1-0.8l0.7,0.9l-1.1,0.8l0.6,0.8l1.4-1l0.7,0.9
						L19.6,50.3z"/>
					<path class="st2" d="M22.8,46.1c0.2,0.3,0.4,0.3,0.6,0.1s0.2-0.3,0-0.6L23,45.2l-0.3,0.2l-0.6-0.8l1.4-1.1l1.8,2.4l-0.6,0.4
						l-0.3-0.1c-0.1,0.4-0.3,0.7-0.6,0.9c-1.1,0.8-1.7,0.5-3-1.2s-1.3-2.5-0.2-3.3c0.5-0.5,1.3-0.6,1.9-0.3c0.2,0.2,0.5,0.4,0.6,0.7
						L22.1,44l-0.2-0.3c-0.2-0.3-0.4-0.3-0.6-0.1s-0.2,0.3,0,0.6L22.8,46.1z"/>
					<path class="st2" d="M26,45.5l-3.3-4.3l1.1-0.9l3.3,4.3L26,45.5z"/>
					<path class="st2" d="M29.3,43L26,38.7l1.3-1c0.9-0.7,1.6-0.8,2.4,0.3s0.6,1.6-0.4,2.4l-0.2,0.2l1.3,1.7L29.3,43z M28.5,39.7
						c0.4-0.3,0.5-0.5,0.1-0.9s-0.5-0.4-0.9-0.1L28.5,39.7z"/>
					<path class="st2" d="M32.3,40.8L29,36.4l2.5-1.9l0.7,0.9l-1.3,1l0.5,0.7l1.1-0.8l0.7,0.9l-1.1,0.8l0.6,0.8l1.4-1.1l0.7,0.9
						L32.3,40.8z"/>
					<path class="st2" d="M35.4,36.5c0.2,0.3,0.4,0.3,0.6,0.1s0.2-0.3,0-0.6l-0.3-0.4l-0.3,0.2l-0.6-0.8l1.5-1.1l1.8,2.4l-0.6,0.4
						l-0.3-0.1c-0.1,0.4-0.3,0.7-0.6,0.9c-1.1,0.8-1.8,0.5-3-1.2s-1.3-2.5-0.2-3.3c0.5-0.5,1.3-0.6,1.9-0.3c0.2,0.2,0.5,0.4,0.6,0.7
						l-1.1,0.8l-0.2-0.3c-0.2-0.3-0.4-0.3-0.6-0.1s-0.2,0.3,0,0.6L35.4,36.5z"/>
					<path class="st2" d="M38.7,35.9l-3.3-4.3l1.1-0.9l3.3,4.3L38.7,35.9z"/>
					<path class="st2" d="M41.9,33.5l-3.3-4.3l1.3-1c0.9-0.7,1.6-0.8,2.4,0.3S43,30,42,30.8L41.8,31l1.2,1.7L41.9,33.5z M41.2,30.2
						c0.4-0.3,0.5-0.5,0.1-0.9s-0.5-0.4-0.9-0.1L41.2,30.2z"/>
					<path class="st2" d="M45,31.2l-3.3-4.3l2.4-1.9l0.7,0.9l-1.3,1l0.6,0.7l1.1-0.8l0.7,0.9l-1.1,0.8l0.6,0.8l1.4-1l0.7,0.9
						L45,31.2z"/>
					<path class="st2" d="M48.1,27c0.2,0.3,0.4,0.3,0.6,0.1s0.2-0.3,0-0.6l-0.3-0.4l-0.3,0.2l-0.6-0.8l1.4-1.1l1.8,2.4l-0.6,0.4
						l-0.3-0.1c-0.1,0.4-0.3,0.7-0.6,0.9c-1.1,0.9-1.7,0.5-3-1.2s-1.3-2.5-0.2-3.4c0.5-0.5,1.3-0.6,1.9-0.3c0.2,0.2,0.5,0.4,0.6,0.7
						l-1.1,0.9l-0.2-0.3c-0.2-0.3-0.4-0.3-0.6-0.1s-0.2,0.3,0,0.6L48.1,27z"/>
					<path class="st2" d="M51.4,26.3L48.2,22l1.1-0.9l3.3,4.3L51.4,26.3z"/>
					<path class="st2" d="M27.3,53.6l-3.3-4.3l1.3-1c0.9-0.7,1.6-0.8,2.4,0.3s0.6,1.6-0.4,2.4l-0.2,0.2l1.3,1.7L27.3,53.6z
						 M26.5,50.3c0.4-0.3,0.5-0.5,0.1-0.9s-0.5-0.4-0.9-0.1L26.5,50.3z"/>
					<path class="st2" d="M30.3,51.4L27.1,47l2.5-1.8l0.7,0.9l-1.3,1l0.5,0.7l1.1-0.8l0.7,0.9l-1.1,0.8l0.6,0.8l1.4-1.1l0.7,0.9
						L30.3,51.4z"/>
					<path class="st2" d="M33.5,47.2c0.2,0.3,0.4,0.3,0.6,0.1s0.2-0.3,0-0.6l-0.3-0.4l-0.3,0.2l-0.6-0.8l1.4-1.1l1.8,2.4l-0.6,0.4
						l-0.3-0.1c-0.1,0.4-0.3,0.7-0.6,0.9c-1.1,0.8-1.8,0.5-3-1.2s-1.3-2.5-0.2-3.3c0.5-0.5,1.3-0.6,1.9-0.3c0.2,0.2,0.5,0.4,0.6,0.7
						L32.8,45l-0.2-0.3c-0.2-0.3-0.4-0.3-0.6-0.1s-0.2,0.3,0,0.6L33.5,47.2z"/>
					<path class="st2" d="M36.8,46.5l-3.3-4.3l1.1-0.9l3.3,4.3L36.8,46.5z"/>
					<path class="st2" d="M40,44.1l-3.3-4.3l1.3-1c0.9-0.7,1.6-0.8,2.4,0.3s0.7,1.6-0.4,2.4l-0.2,0.2l1.3,1.7L40,44.1z M39.2,40.8
						c0.4-0.3,0.5-0.5,0.1-0.9s-0.5-0.4-0.9-0.1L39.2,40.8z"/>
					<path class="st2" d="M43,41.8l-3.3-4.3l2.5-1.9l0.7,0.9l-1.3,1l0.6,0.7l1.1-0.8l0.7,0.9l-1.1,0.8l0.6,0.8l1.4-1l0.7,0.9
						L43,41.8z"/>
					<path class="st2" d="M46.2,37.6c0.2,0.3,0.4,0.3,0.6,0.1s0.2-0.3,0-0.6l-0.3-0.4l-0.3,0.2l-0.6-0.8L47,35l1.8,2.4l-0.6,0.4
						l-0.3-0.1c-0.1,0.4-0.3,0.7-0.6,0.9c-1.1,0.9-1.7,0.5-3-1.2S43,35,44,34.2c0.5-0.5,1.3-0.6,2-0.3c0.2,0.2,0.5,0.4,0.6,0.7
						l-1.1,0.9l-0.2-0.3c-0.2-0.3-0.4-0.3-0.6-0.1s-0.2,0.3,0,0.6L46.2,37.6z"/>
					<path class="st2" d="M49.5,37l-3.3-4.4l1.1-0.9l3.3,4.3L49.5,37z"/>
					<path class="st2" d="M52.7,34.5l-3.3-4.3l1.3-1c0.9-0.7,1.6-0.8,2.4,0.3s0.7,1.6-0.4,2.4L52.5,32l1.3,1.7L52.7,34.5z
						 M51.9,31.2c0.4-0.3,0.5-0.5,0.1-0.9s-0.5-0.4-0.9-0.1L51.9,31.2z"/>
					<path class="st2" d="M38.8,54.1l-3.3-4.3l1.3-1c0.9-0.7,1.6-0.7,2.4,0.3s0.6,1.6-0.4,2.4l-0.2,0.2l1.3,1.7L38.8,54.1z M38,50.8
						c0.4-0.3,0.5-0.5,0.1-1s-0.5-0.4-0.9-0.1L38,50.8z"/>
					<path class="st2" d="M41.8,51.9l-3.3-4.3l2.5-1.9l0.7,0.9l-1.3,1l0.5,0.7l1.1-0.8l0.7,0.9l-1.1,0.8l0.6,0.8l1.4-1l0.7,0.9
						L41.8,51.9z"/>
					<path class="st2" d="M45,47.7c0.2,0.3,0.4,0.3,0.6,0.1s0.2-0.3,0-0.6l-0.3-0.4L45,47l-0.6-0.8l1.4-1.1l1.8,2.4L47,48l-0.3-0.1
						c-0.1,0.4-0.3,0.7-0.6,0.9c-1.1,0.8-1.8,0.5-3-1.2s-1.3-2.6-0.2-3.4c0.5-0.5,1.3-0.6,1.9-0.2c0.2,0.2,0.5,0.4,0.6,0.7l-1.1,0.9
						l-0.2-0.3c-0.2-0.3-0.4-0.3-0.6-0.1s-0.2,0.3,0,0.6L45,47.7z"/>
					<path class="st2" d="M48.2,47L45,42.7l1.1-0.8l3.3,4.3L48.2,47z"/>
					<path class="st2" d="M51.5,44.6l-3.3-4.3l1.3-1c0.9-0.7,1.6-0.7,2.4,0.3s0.7,1.6-0.4,2.4L51.3,42l1.3,1.7L51.5,44.6z
						 M50.7,41.3c0.4-0.3,0.5-0.5,0.1-1s-0.5-0.4-0.9-0.1L50.7,41.3z"/>
				</g>
			</g>
		</g>
	</g>
	<g id="bad_language">
		<path class="st3" d="M47.6,19.9L43.3,7c-0.5-1.6-2.3-2.5-3.9-2c0,0,0,0,0,0l-21.1,7.3c-1.5,0.5-2.3,2-2.1,3.5l-0.4,0.1
			c-2.3,0.4-4.3,1.8-5.4,3.8L2.9,32.8c-0.2,0.4-0.1,1,0.3,1.3c0.4,0.3,1,0.1,1.3-0.3c0,0,0,0,0,0l7.5-13.1c0.9-1.5,2.4-2.6,4.1-2.9
			l0.6-0.1l2.7,8.1c-0.7,0.5-1.6,0.9-2.4,1.1c-0.5,0.2-0.8,0.7-0.7,1.2c0.1,0.5,0.6,0.8,1.1,0.7c0,0,0,0,0,0
			c0.9-0.2,1.8-0.6,2.6-1.1l0,0c0.2-0.1,0.3-0.2,0.5-0.3c0.2-0.1,0.4-0.3,0.5-0.4l0.4-0.3l0,0l4.1-3.2c0.8-0.5,1.8-0.2,2.3,0.6
			c0.4,0.7,0.3,1.5-0.3,2l-3.4,2.7c-1.4,1.1-2.4,2.5-2.9,4.2c-0.7,2.2-2.6,4-4.9,4.5l-0.3,0.1C15.1,37.8,14,38.3,13,39
			c-0.4,0.3-0.5,0.9-0.2,1.3c0.3,0.4,0.9,0.5,1.3,0.2c0,0,0,0,0,0c0.7-0.6,1.6-1,2.5-1.2l0.3,0c1.6-0.4,3.1-1.3,4.3-2.6l1.3-1.8
			c0.1-0.1,0.1-0.2,0.2-0.3c0.9,0.6,2.1,0.6,3,0.1c0.4-0.2,0.8-0.6,1-1c1.4,0.7,3.2,0.1,3.8-1.3c0,0,0,0,0,0l0.1-0.2
			c0.6,0.1,1.2,0.1,1.7-0.1c1.7-0.5,1.4-2.5,1-3.8l12.2-4.3c1.6-0.5,2.6-2.2,2.1-3.8C47.6,20,47.6,19.9,47.6,19.9z M18.8,13.9
			l21.1-7.2c0.7-0.2,1.5,0.1,1.7,0.9L42,8.4l-18.2,6.3l0,0h-0.1l-5.4,1.8L18,15.6C17.8,14.9,18.2,14.2,18.8,13.9L18.8,13.9z
			 M24.7,33c-0.4,0.2-1,0.1-1.3-0.3c0.1-0.2,0.2-0.4,0.3-0.5l0.9-1.2l0.4-0.1l0.3,0.8C25.5,32.2,25.2,32.8,24.7,33L24.7,33z
			 M28.1,32c-0.4,0-0.8-0.2-1-0.7c0-0.1,0-0.1,0-0.2l-0.3-0.8l1.9-0.6l0.3,1.2C29.1,31.5,28.7,31.9,28.1,32C28.2,32,28.2,32,28.1,32
			z M31.8,30.4c-0.4,0.2-0.8,0.1-1.1-0.3l-0.4-1l1.7-0.5C32.3,29.3,32.5,30.1,31.8,30.4L31.8,30.4z M45.1,22.1L45.1,22.1L28.2,28
			l0.7-0.6c1.5-1.2,1.8-3.4,0.6-5s-3.4-1.8-5-0.6l0,0l-2.1,1.6c0,0-0.9,0.5-1.6,1l-1.3-3.8l23.7-8.1l2.8,7.8
			C46.2,21.1,45.8,21.9,45.1,22.1C45.1,22.1,45.1,22.1,45.1,22.1z"/>
	</g>
	<g id="BORDER_black">
		<g id="border">
			<path class="st0" d="M0,0v50h50V0H0z M49,49H1V1h48V49z"/>
		</g>
	</g>
	<g id="TXT_black">
		<rect y="42" class="st0" width="50" height="8"/>
	</g>
	<g id="TM_white">
		<path id="TM" class="st3" d="M44.8,2v0.4H44v2.5h-0.5V2.4h-0.8V2H44.8z M48,4.9h-0.5V2.6l0,0l-0.8,2.3h-0.4l-0.8-2.3l0,0v2.3h-0.5
			V2h0.7l0.7,2.1l0,0L47.3,2H48V4.9z"/>
		<path class="st3" d="M1,43.3h1.1v5.3H1V43.3z"/>
		<path class="st3" d="M4.3,43.3h1v5.3H4.1l-0.6-3.2l0,0v3.2h-1v-5.3h1.2l0.6,3.2l0,0L4.3,43.3z"/>
		<path class="st3" d="M5.7,45.9h1.8V47H5.7V45.9z"/>
		<path class="st3" d="M9.1,45.7h1.3v2.9H9.7v-0.4l0,0c-0.1,0.3-0.4,0.6-0.8,0.5c-1.2,0-1.2-1.3-1.2-2.7s0.1-2.7,1.4-2.7
			c1.1,0,1.3,0.7,1.3,1.8h-1v-0.2c0-0.4-0.1-0.6-0.3-0.6s-0.3,0.3-0.3,0.7V47c0,0.3,0,0.7,0.3,0.7s0.3-0.3,0.3-0.7v-0.3H9.1V45.7z"
			/>
		<path class="st3" d="M12.5,47.8h-0.7l-0.1,0.8h-1.1l0.9-5.3h1.4l0.9,5.3h-1.1L12.5,47.8z M12.2,44.5L12.2,44.5l-0.3,2.2h0.5
			L12.2,44.5z"/>
		<path class="st3" d="M13.9,43.3h1.6l0.3,3.2l0,0l0.4-3.2h1.5v5.3h-1v-3.8l0,0l-0.5,3.8h-0.8L15,44.8l0,0v3.8h-1L13.9,43.3z"/>
		<path class="st3" d="M18.2,43.3h2.4v1.2h-1.3v0.8h1.2v1.2h-1.2v0.9h1.3v1.2h-2.4V43.3z"/>
		<path class="st3" d="M22.3,43.3h1.5c0.8,0,1.3,0.5,1.3,1.6s-0.5,1.6-1.3,1.6h-0.3v2h-1.1V43.3z M23.4,45.6h0.1
			c0.2,0,0.4,0,0.4-0.6c0-0.4-0.1-0.6-0.4-0.6h-0.1V45.6z"/>
		<path class="st3" d="M26.9,43.3H28v3.5c0,1.3-0.4,1.9-1.4,1.9s-1.3-0.6-1.3-1.9v-3.5h1.1v3.8c0,0.5,0,0.6,0.3,0.6s0.3-0.2,0.3-0.6
			L26.9,43.3z"/>
		<path class="st3" d="M28.4,43.3H30c0.8,0,1.1,0.5,1.1,1.4s-0.3,1.2-0.6,1.3l0,0c0.2,0,0.4,0.2,0.5,0.4c0.1,0.3,0.1,0.6,0.1,0.9
			v0.4c0,0.2,0,0.4,0,0.6c0,0.1,0.1,0.1,0.1,0.2v0.1h-1.1C30,48.3,30,48.1,30,47.8c0-0.3,0-0.5,0-0.8c0-0.5-0.1-0.5-0.3-0.5h-0.2
			v2.1h-1.1V43.3z M29.5,45.6h0.2c0.2,0,0.4-0.1,0.4-0.6s-0.1-0.5-0.4-0.5h-0.1L29.5,45.6z"/>
		<path class="st3" d="M33.1,44.8c0-0.2,0-0.7-0.2-0.7s-0.3,0.3-0.3,1.8s0,1.8,0.3,1.8s0.2-0.2,0.2-0.9v-0.4h1.1v0.3
			c0,1.2-0.4,1.9-1.3,1.9c-1.4,0-1.4-1-1.4-2.7s0-2.7,1.4-2.7c1.2,0,1.3,0.8,1.3,1.7v0.4h-1.1V44.8z"/>
		<path class="st3" d="M36.1,43.3h1.1v5.3h-1.1v-2.1h-0.5v2.1h-1.1v-5.3h1.1v1.9h0.5V43.3z"/>
		<path class="st3" d="M39.3,47.8h-0.7l-0.1,0.8h-1.1l0.9-5.3h1.4l0.9,5.3h-1.1L39.3,47.8z M39,44.5L39,44.5l-0.3,2.2h0.5L39,44.5z"
			/>
		<path class="st3" d="M42.2,44.6c0-0.2-0.1-0.4-0.3-0.4s-0.3,0.2-0.3,0.4c0,1,1.6,0.5,1.6,2.4c0,1.2-0.4,1.7-1.4,1.7
			c-0.8,0-1.3-0.4-1.3-1.5V47h1.1v0.2c0,0.3,0.1,0.5,0.3,0.5s0.3-0.2,0.3-0.5c0-0.2-0.1-0.4-0.2-0.5c-0.2-0.1-0.3-0.2-0.5-0.3
			c-0.5-0.3-0.9-0.9-0.8-1.5c-0.1-0.5,0.1-1,0.4-1.4c0.2-0.2,0.6-0.3,0.9-0.3c1.1,0,1.3,0.7,1.3,1.6h-1L42.2,44.6z"/>
		<path class="st3" d="M43.7,43.3H46v1.2h-1.2v0.8h1.2v1.2h-1.2v0.9h1.3v1.2h-2.4V43.3z"/>
		<path class="st3" d="M47.9,44.6c0-0.2-0.1-0.4-0.3-0.4s-0.3,0.2-0.3,0.4c0,1,1.6,0.5,1.6,2.4c0,1.2-0.4,1.7-1.4,1.7
			c-0.8,0-1.3-0.4-1.3-1.5V47h1.1v0.2c0,0.3,0.1,0.5,0.3,0.5s0.3-0.2,0.3-0.5c0-0.2-0.1-0.4-0.2-0.5c-0.1-0.1-0.3-0.2-0.5-0.3
			c-0.5-0.3-0.9-0.9-0.8-1.5c-0.1-0.5,0.1-1,0.4-1.4c0.2-0.2,0.6-0.3,0.9-0.3c1.1,0,1.3,0.7,1.3,1.6h-1L47.9,44.6z"/>
	</g>
</g>
</svg>
