<?xml version="1.0" encoding="utf-8"?>
<!-- Generator: Adobe Illustrator 25.4.1, SVG Export Plug-In . SVG Version: 6.00 Build 0)  -->
<svg version="1.1" id="Layer_1" xmlns="http://www.w3.org/2000/svg" xmlns:xlink="http://www.w3.org/1999/xlink" x="0px" y="0px"
	 viewBox="0 0 50 50" style="enable-background:new 0 0 50 50;" xml:space="preserve">
<style type="text/css">
	.st0{fill:#1D1D1B;}
	.st1{clip-path:url(#SVGID_00000147919483012728442900000016128264604880501120_);}
	.st2{fill:#575756;}
	.st3{clip-path:url(#SVGID_00000026883411384077185620000004126486869034132402_);}
	.st4{clip-path:url(#SVGID_00000033348440316960427660000008113517503427326605_);}
	.st5{clip-path:url(#SVGID_00000078762062976912818790000008750880504393098892_);}
	.st6{clip-path:url(#SVGID_00000005973541444455856360000013402452543461876371_);}
	.st7{clip-path:url(#SVGID_00000042710644830427297570000014809476838042494623_);}
	.st8{clip-path:url(#SVGID_00000068650762895297857910000000799002240233036448_);}
	.st9{clip-path:url(#SVGID_00000031926061159515123070000013154356054186574769_);}
	.st10{clip-path:url(#SVGID_00000142155779550171512180000014616034023517806007_);}
	.st11{fill:#FFFFFF;}
	.st12{fill:#020604;}
</style>
<g id="Layer_2_00000005975653063776038890000008013600355041374396_">
	<g id="Layer_1-2">
		<polygon class="st0" points="50,50 0,50 0,0 50,0 50,50 		"/>
		<g>
			<defs>
				<polygon id="SVGID_1_" points="50,50 0,50 0,0 50,0 50,50 				"/>
			</defs>
			<clipPath id="SVGID_00000101065891237613146050000017634948404367859623_">
				<use xlink:href="#SVGID_1_"  style="overflow:visible;"/>
			</clipPath>
			<g style="clip-path:url(#SVGID_00000101065891237613146050000017634948404367859623_);">
				<polygon class="st2" points="-0.3,10.5 -3.6,6.2 -2.4,5.3 0.8,9.6 -0.3,10.5 				"/>
				<path class="st2" d="M2.1,4.7c0.4-0.3,0.5-0.5,0.1-0.9S1.8,3.4,1.3,3.7L2.1,4.7L2.1,4.7z M2.9,8.1l-3.3-4.3l1.3-1
					C1.8,2,2.6,2,3.3,3S4,4.6,2.9,5.4L2.7,5.5L4,7.2L2.9,8.1z"/>
				<polygon class="st2" points="5.9,5.8 2.7,1.5 5.1,-0.4 5.8,0.5 4.5,1.5 5,2.2 6.1,1.4 6.8,2.3 5.7,3.2 6.4,4 7.8,2.9 8.5,3.9 
					5.9,5.8 				"/>
				<path class="st2" d="M9.1,1.6c0.2,0.3,0.4,0.3,0.6,0.1s0.2-0.3,0-0.6L9.4,0.7L9.1,0.9L8.5,0.1L9.9-1l1.8,2.4l-0.6,0.4l-0.3-0.1
					c-0.1,0.4-0.3,0.7-0.6,0.9C9,3.5,8.4,3.2,7.2,1.5S5.9-1.1,7-1.9c0.5-0.5,1.3-0.6,1.9-0.3c0.2,0.2,0.5,0.4,0.6,0.7L8.4-0.6
					L8.2-0.9C8-1.1,7.8-1.1,7.6-1s-0.2,0.3,0,0.6L9.1,1.6L9.1,1.6z"/>
				<polygon class="st2" points="12.4,0.9 9.1,-3.4 10.3,-4.3 13.5,0.1 12.4,0.9 				"/>
				<path class="st2" d="M0.2,15.3c0.4-0.3,0.5-0.5,0.1-0.9s-0.5-0.4-0.9-0.1C-0.6,14.3,0.2,15.3,0.2,15.3z M1,18.6l-3.3-4.3l1.3-1
					c0.9-0.7,1.6-0.8,2.4,0.3S2,15.2,1,16l-0.2,0.1l1.3,1.7L1,18.6z"/>
			</g>
		</g>
		<polygon class="st2" points="4,16.4 0.7,12.1 3.2,10.2 3.9,11.1 2.5,12.1 3.1,12.8 4.2,12 4.9,12.9 3.8,13.8 4.4,14.6 5.8,13.5 
			6.5,14.5 4,16.4 		"/>
		<path class="st2" d="M7.1,12.2c0.2,0.3,0.4,0.3,0.6,0.1s0.2-0.3,0-0.6l-0.3-0.4l-0.3,0.2l-0.6-0.8l1.4-1.1L9.8,12l-0.6,0.4
			l-0.3-0.1c-0.1,0.4-0.3,0.7-0.6,0.9c-1.1,0.9-1.8,0.5-3-1.2S3.9,9.6,5,8.7c0.5-0.5,1.3-0.6,1.9-0.3c0.2,0.2,0.5,0.4,0.6,0.7
			L6.4,10L6.2,9.8C6,9.5,5.8,9.5,5.7,9.6s-0.2,0.3,0,0.6L7.1,12.2L7.1,12.2z"/>
		<polygon class="st2" points="10.4,11.5 7.2,7.2 8.3,6.4 11.6,10.7 10.4,11.5 		"/>
		<path class="st2" d="M12.9,5.8c0.4-0.3,0.5-0.5,0.1-0.9s-0.5-0.4-0.9-0.1L12.9,5.8L12.9,5.8z M13.6,9.1l-3.2-4.3l1.3-1
			C12.6,3.1,13.3,3,14.1,4s0.6,1.6-0.4,2.4l-0.2,0.2l1.3,1.7L13.6,9.1L13.6,9.1z"/>
		<g>
			<defs>
				<polygon id="SVGID_00000043415273923291632220000005462794248337308803_" points="50,50 0,50 0,0 50,0 50,50 				"/>
			</defs>
			<clipPath id="SVGID_00000165217804547348044410000007089129187509440401_">
				<use xlink:href="#SVGID_00000043415273923291632220000005462794248337308803_"  style="overflow:visible;"/>
			</clipPath>
			<g style="clip-path:url(#SVGID_00000165217804547348044410000007089129187509440401_);">
				<polygon class="st2" points="16.7,6.8 13.4,2.5 15.9,0.7 16.5,1.5 15.2,2.5 15.8,3.3 16.9,2.4 17.6,3.4 16.5,4.2 17.1,5 18.5,4 
					19.2,4.9 16.7,6.8 				"/>
				<path class="st2" d="M19.8,2.6c0.2,0.3,0.4,0.3,0.6,0.1s0.2-0.3,0-0.6l-0.3-0.4L19.8,2l-0.6-0.8l1.4-1.1l1.8,2.4l-0.6,0.4
					l-0.3-0.1c-0.1,0.4-0.3,0.7-0.6,0.9c-1.1,0.9-1.7,0.5-3-1.2S16.6,0,17.7-0.8c0.5-0.5,1.3-0.6,1.9-0.2c0.2,0.2,0.5,0.4,0.6,0.7
					l-1.1,0.8l-0.2-0.3c-0.2-0.3-0.4-0.3-0.6-0.1s-0.2,0.3,0,0.6L19.8,2.6L19.8,2.6z"/>
				<polygon class="st2" points="23.1,2 19.8,-2.3 21,-3.2 24.2,1.1 23.1,2 				"/>
				<path class="st2" d="M-1.8,26c0.4-0.3,0.5-0.5,0.1-1s-0.5-0.4-0.9-0.1L-1.8,26z M-1,29.3L-4.3,25l1.3-1c0.9-0.7,1.6-0.7,2.4,0.3
					S0,25.8-1,26.6l-0.2,0.1l1.3,1.7L-1,29.3z"/>
				<polygon class="st2" points="2,27 -1.2,22.7 1.2,20.8 1.9,21.7 0.6,22.7 1.1,23.4 2.2,22.6 2.9,23.5 1.8,24.4 2.5,25.2 
					3.9,24.2 4.6,25.1 2,27 				"/>
			</g>
		</g>
		<path class="st2" d="M5.2,22.8c0.2,0.3,0.4,0.3,0.6,0.1s0.2-0.3,0-0.6l-0.3-0.4l-0.3,0.2l-0.6-0.8L6,20.2l1.8,2.4l-0.6,0.4L6.9,23
			c-0.1,0.4-0.3,0.7-0.6,0.9c-1.1,0.9-1.8,0.5-3-1.2S2,20.2,3,19.3c0.5-0.5,1.3-0.6,2-0.3c0.2,0.2,0.5,0.4,0.6,0.7l-1.1,0.9
			l-0.2-0.3c-0.2-0.3-0.4-0.3-0.6-0.1s-0.2,0.3,0,0.6L5.2,22.8L5.2,22.8z"/>
		<polygon class="st2" points="8.5,22.1 5.2,17.8 6.4,17 9.6,21.3 8.5,22.1 		"/>
		<path class="st2" d="M10.9,16.4c0.4-0.3,0.5-0.5,0.1-0.9s-0.5-0.4-0.9-0.1L10.9,16.4L10.9,16.4z M11.7,19.7l-3.3-4.3l1.3-1
			c0.9-0.7,1.6-0.8,2.4,0.3s0.6,1.6-0.4,2.4l-0.2,0.1l1.3,1.7L11.7,19.7L11.7,19.7z"/>
		<polygon class="st2" points="14.7,17.4 11.5,13.1 13.9,11.3 14.6,12.1 13.3,13.2 13.8,13.9 14.9,13.1 15.6,14 14.5,14.8 
			15.2,15.6 16.5,14.6 17.3,15.5 14.7,17.4 		"/>
		<path class="st2" d="M17.9,13.2c0.2,0.3,0.4,0.3,0.6,0.1s0.2-0.3,0-0.6l-0.3-0.4l-0.3,0.2l-0.6-0.8l1.4-1.1l1.8,2.4l-0.6,0.4
			l-0.3-0.1c-0.1,0.4-0.3,0.7-0.6,0.9c-1.1,0.9-1.8,0.5-3-1.2s-1.3-2.5-0.2-3.3c0.5-0.5,1.3-0.6,1.9-0.3c0.2,0.2,0.5,0.4,0.6,0.7
			l-1.1,0.9L17,10.8c-0.2-0.3-0.4-0.3-0.6-0.1s-0.2,0.3,0,0.6L17.9,13.2L17.9,13.2z"/>
		<polygon class="st2" points="21.2,12.6 17.9,8.3 19,7.4 22.3,11.7 21.2,12.6 		"/>
		<path class="st2" d="M23.6,6.8c0.4-0.3,0.5-0.5,0.1-0.9s-0.5-0.4-0.9-0.1L23.6,6.8L23.6,6.8z M24.4,10.1l-3.3-4.3l1.3-1
			c0.9-0.7,1.6-0.8,2.4,0.3s0.6,1.6-0.4,2.4l-0.2,0.2l1.3,1.7L24.4,10.1L24.4,10.1z"/>
		<g>
			<defs>
				<polygon id="SVGID_00000008866929485252798620000008385615041114064552_" points="50,50 0,50 0,0 50,0 50,50 				"/>
			</defs>
			<clipPath id="SVGID_00000137822268598090739340000016233324026730797226_">
				<use xlink:href="#SVGID_00000008866929485252798620000008385615041114064552_"  style="overflow:visible;"/>
			</clipPath>
			<g style="clip-path:url(#SVGID_00000137822268598090739340000016233324026730797226_);">
				<polygon class="st2" points="27.4,7.9 24.2,3.6 26.6,1.7 27.3,2.6 26,3.6 26.5,4.3 27.6,3.5 28.3,4.4 27.2,5.3 27.8,6.1 29.2,5 
					29.9,6 27.4,7.9 				"/>
				<path class="st2" d="M30.5,3.7c0.2,0.3,0.4,0.3,0.6,0.1s0.2-0.3,0-0.6l-0.3-0.4L30.5,3l-0.6-0.8l1.4-1.1l1.8,2.4L32.6,4
					l-0.3-0.1c-0.1,0.4-0.3,0.7-0.6,0.9c-1.1,0.9-1.8,0.5-3-1.2S27.3,1,28.4,0.2c0.5-0.5,1.3-0.6,1.9-0.2c0.2,0.2,0.5,0.4,0.6,0.6
					l-1.1,0.9l-0.2-0.3C29.5,1,29.3,1,29.1,1.1s-0.2,0.3,0,0.6L30.5,3.7L30.5,3.7z"/>
				<polygon class="st2" points="33.8,3 30.6,-1.3 31.7,-2.1 35,2.2 33.8,3 				"/>
				<path class="st2" d="M36.3-2.7c0.4-0.3,0.5-0.5,0.1-0.9s-0.5-0.4-0.9-0.1L36.3-2.7L36.3-2.7z M37.1,0.6l-3.3-4.3l1.3-1
					c0.9-0.7,1.6-0.8,2.4,0.3s0.7,1.6-0.4,2.4L36.9-2l1.3,1.7L37.1,0.6z"/>
				<polygon class="st2" points="0.1,37.6 -3.2,33.3 -0.7,31.4 0,32.3 -1.4,33.3 -0.8,34 0.3,33.2 1,34.1 -0.1,35 0.5,35.8 
					1.9,34.8 2.6,35.7 0.1,37.6 				"/>
			</g>
		</g>
		<path class="st2" d="M3.2,33.4c0.2,0.3,0.4,0.3,0.6,0.1s0.2-0.3,0-0.6l-0.3-0.4l-0.3,0.2l-0.6-0.8L4,30.9l1.8,2.4l-0.6,0.4
			l-0.3-0.1c-0.1,0.4-0.3,0.7-0.6,0.9c-1.1,0.8-1.7,0.5-3-1.2S0,30.8,1.1,29.9c0.5-0.5,1.3-0.6,1.9-0.3c0.2,0.2,0.5,0.4,0.6,0.7
			l-1.1,0.9L2.3,31c-0.2-0.3-0.4-0.3-0.6-0.1s-0.2,0.3,0,0.6L3.2,33.4L3.2,33.4z"/>
		<polygon class="st2" points="6.5,32.8 3.3,28.4 4.4,27.6 7.7,31.9 6.5,32.8 		"/>
		<path class="st2" d="M9,27c0.4-0.3,0.5-0.5,0.1-1s-0.5-0.4-0.9-0.1L9,27z M9.8,30.3L6.5,26l1.3-1c0.9-0.7,1.6-0.8,2.4,0.3
			s0.6,1.6-0.4,2.4l-0.2,0.1l1.3,1.7L9.8,30.3L9.8,30.3z"/>
		<polygon class="st2" points="12.8,28 9.5,23.7 12,21.9 12.7,22.8 11.3,23.8 11.9,24.5 13,23.7 13.7,24.6 12.6,25.4 13.2,26.3 
			14.6,25.2 15.3,26.1 12.8,28 		"/>
		<path class="st2" d="M15.9,23.8c0.2,0.3,0.4,0.3,0.6,0.1s0.2-0.3,0-0.6L16.2,23l-0.3,0.2l-0.6-0.8l1.4-1.1l1.8,2.4L18,24.2
			L17.6,24c-0.1,0.4-0.3,0.8-0.6,1c-1.1,0.9-1.8,0.5-3-1.2s-1.3-2.5-0.2-3.4c0.5-0.5,1.3-0.6,1.9-0.3c0.2,0.2,0.5,0.4,0.6,0.7
			l-1.1,0.9L15,21.4c-0.2-0.3-0.4-0.3-0.6-0.1s-0.2,0.3,0,0.6L15.9,23.8L15.9,23.8z"/>
		<polygon class="st2" points="19.2,23.2 15.9,18.9 17.1,18 20.3,22.3 19.2,23.2 		"/>
		<path class="st2" d="M21.6,17.4c0.4-0.3,0.5-0.5,0.1-0.9s-0.5-0.4-0.9-0.1L21.6,17.4L21.6,17.4z M22.4,20.8l-3.3-4.3l1.3-1
			c0.9-0.7,1.6-0.8,2.4,0.3s0.6,1.6-0.4,2.4l-0.2,0.1l1.3,1.7L22.4,20.8L22.4,20.8z"/>
		<polygon class="st2" points="25.5,18.5 22.2,14.2 24.7,12.3 25.3,13.2 24,14.2 24.6,14.9 25.7,14.1 26.3,15 25.3,15.9 25.9,16.7 
			27.3,15.6 28,16.6 25.5,18.5 		"/>
		<path class="st2" d="M28.6,14.3c0.2,0.3,0.4,0.3,0.6,0.1s0.2-0.3,0-0.6l-0.3-0.4l-0.3,0.2L28,12.8l1.4-1.1l1.8,2.4l-0.6,0.4
			l-0.3-0.1c-0.1,0.4-0.3,0.7-0.6,0.9c-1.1,0.9-1.8,0.5-3-1.2s-1.3-2.5-0.2-3.3c0.5-0.5,1.3-0.6,1.9-0.3c0.2,0.2,0.5,0.4,0.6,0.7
			l-1.1,0.9l-0.2-0.3c-0.2-0.3-0.4-0.3-0.6-0.1s-0.2,0.3,0,0.6L28.6,14.3L28.6,14.3z"/>
		<polygon class="st2" points="31.9,13.6 28.6,9.3 29.8,8.5 33,12.8 31.9,13.6 		"/>
		<path class="st2" d="M34.3,7.9c0.4-0.3,0.5-0.5,0.1-0.9S34,6.5,33.5,6.8L34.3,7.9L34.3,7.9z M35.1,11.2l-3.3-4.3l1.3-1
			c0.9-0.7,1.6-0.8,2.4,0.3s0.7,1.6-0.4,2.4l-0.2,0.1l1.3,1.7L35.1,11.2L35.1,11.2z"/>
		<polygon class="st2" points="38.1,8.9 34.9,4.6 37.4,2.8 38,3.6 36.7,4.6 37.2,5.4 38.3,4.6 39,5.5 37.9,6.3 38.6,7.1 40,6.1 
			40.7,7 38.1,8.9 		"/>
		<g>
			<defs>
				<polygon id="SVGID_00000164471885708885147740000011196233545438906807_" points="50,50 0,50 0,0 50,0 50,50 				"/>
			</defs>
			<clipPath id="SVGID_00000037669570507164497280000009835075379316596643_">
				<use xlink:href="#SVGID_00000164471885708885147740000011196233545438906807_"  style="overflow:visible;"/>
			</clipPath>
			<g style="clip-path:url(#SVGID_00000037669570507164497280000009835075379316596643_);">
				<path class="st2" d="M41.3,4.7C41.5,5,41.7,5,41.9,4.8s0.2-0.3,0-0.6l-0.3-0.4L41.3,4l-0.6-0.8l1.4-1.1l1.8,2.4L43.3,5L43,4.9
					c-0.1,0.4-0.3,0.7-0.6,0.9c-1.1,0.9-1.8,0.5-3-1.2s-1.3-2.5-0.2-3.3c0.5-0.5,1.3-0.6,1.9-0.3c0.2,0.2,0.5,0.4,0.6,0.7l-1.1,0.9
					l-0.2-0.3C40.2,2,40,2,39.8,2.2s-0.2,0.3,0,0.6L41.3,4.7L41.3,4.7z"/>
				<polygon class="st2" points="44.6,4.1 41.3,-0.2 42.5,-1.1 45.7,3.2 44.6,4.1 				"/>
				<path class="st2" d="M47-1.7c0.4-0.3,0.5-0.5,0.1-0.9S46.6-3,46.2-2.7L47-1.7L47-1.7z M47.8,1.6l-3.2-4.3l1.3-1
					c0.9-0.7,1.6-0.7,2.4,0.3s0.6,1.6-0.4,2.4l-0.2,0.1l1.3,1.7L47.8,1.6L47.8,1.6z"/>
				<polygon class="st2" points="-1.9,48.2 -5.1,43.9 -2.6,42 -2,42.9 -3.3,43.9 -2.8,44.7 -1.7,43.8 -1,44.8 -2.1,45.6 -1.4,46.4 
					0,45.4 0.7,46.3 -1.9,48.2 				"/>
				<path class="st2" d="M1.3,44c0.2,0.3,0.4,0.3,0.6,0.1s0.2-0.3,0-0.6l-0.3-0.4l-0.3,0.2l-0.6-0.8l1.4-1.1l1.8,2.4l-0.6,0.4
					L3,44.2c-0.1,0.4-0.3,0.7-0.6,0.9c-1.1,0.8-1.7,0.5-3-1.2s-1.3-2.5-0.2-3.4c0.5-0.5,1.3-0.6,1.9-0.3c0.2,0.2,0.5,0.4,0.6,0.7
					l-1.1,0.9l-0.2-0.2c-0.2-0.3-0.4-0.3-0.6-0.1s-0.2,0.3,0,0.6L1.3,44L1.3,44z"/>
			</g>
		</g>
		<polygon class="st2" points="4.6,43.4 1.3,39 2.5,38.2 5.7,42.5 4.6,43.4 		"/>
		<path class="st2" d="M7,37.6c0.4-0.3,0.5-0.5,0.1-1s-0.5-0.4-0.9-0.1L7,37.6L7,37.6z M7.8,40.9l-3.2-4.3l1.3-1
			c0.9-0.7,1.6-0.7,2.4,0.3s0.6,1.6-0.4,2.4l-0.2,0.1l1.3,1.7L7.8,40.9L7.8,40.9z"/>
		<polygon class="st2" points="10.8,38.6 7.6,34.3 10,32.5 10.7,33.4 9.4,34.4 9.9,35.1 11,34.3 11.7,35.2 10.6,36 11.3,36.9 
			12.7,35.8 13.3,36.7 10.8,38.6 		"/>
		<path class="st2" d="M14,34.4c0.2,0.3,0.4,0.3,0.6,0.1s0.2-0.3,0-0.6l-0.3-0.4L14,33.8L13.4,33l1.4-1.1l1.8,2.4L16,34.8l-0.3-0.1
			c-0.1,0.4-0.3,0.7-0.6,0.9c-1.1,0.8-1.8,0.5-3-1.2s-1.3-2.5-0.2-3.4c0.5-0.5,1.3-0.6,1.9-0.3c0.2,0.2,0.5,0.4,0.6,0.7l-1.1,0.9
			L13.1,32c-0.2-0.3-0.4-0.3-0.6-0.1s-0.2,0.3,0,0.6L14,34.4L14,34.4z"/>
		<polygon class="st2" points="17.3,33.8 14,29.5 15.1,28.6 18.4,32.9 17.3,33.8 		"/>
		<path class="st2" d="M19.7,28c0.4-0.3,0.5-0.5,0.1-0.9s-0.5-0.4-0.9-0.1C18.9,27,19.7,28,19.7,28z M20.5,31.4L17.2,27l1.3-1
			c0.9-0.7,1.6-0.8,2.4,0.3s0.6,1.6-0.4,2.4l-0.2,0.1l1.3,1.7L20.5,31.4L20.5,31.4z"/>
		<polygon class="st2" points="23.5,29.1 20.3,24.8 22.7,22.9 23.4,23.8 22.1,24.8 22.6,25.5 23.7,24.7 24.4,25.6 23.3,26.5 
			23.9,27.3 25.3,26.3 26,27.2 23.5,29.1 		"/>
		<path class="st2" d="M26.6,24.9c0.2,0.3,0.4,0.3,0.6,0.1s0.2-0.3,0-0.6L26.9,24l-0.3,0.2L26,23.4l1.4-1.1l1.8,2.4l-0.6,0.4
			l-0.3-0.1c-0.1,0.4-0.3,0.7-0.6,0.9c-1.1,0.9-1.7,0.5-3-1.2s-1.3-2.5-0.2-3.4c0.5-0.5,1.3-0.6,1.9-0.3c0.2,0.2,0.5,0.4,0.6,0.7
			L26,22.7l-0.2-0.3c-0.2-0.3-0.4-0.3-0.6-0.1s-0.2,0.3,0,0.6L26.6,24.9L26.6,24.9z"/>
		<polygon class="st2" points="29.9,24.2 26.7,19.9 27.8,19.1 31.1,23.4 29.9,24.2 		"/>
		<path class="st2" d="M32.4,18.5c0.4-0.3,0.5-0.5,0.1-0.9s-0.5-0.4-0.9-0.1L32.4,18.5L32.4,18.5z M33.2,21.8l-3.3-4.3l1.3-1
			c0.9-0.7,1.6-0.8,2.4,0.3s0.7,1.6-0.4,2.4L33,19.3l1.3,1.7L33.2,21.8L33.2,21.8z"/>
		<polygon class="st2" points="36.2,19.5 32.9,15.2 35.4,13.4 36.1,14.3 34.7,15.3 35.3,16 36.4,15.2 37.1,16.1 36,16.9 36.6,17.8 
			38,16.7 38.7,17.6 36.2,19.5 		"/>
		<path class="st2" d="M39.3,15.3c0.2,0.3,0.4,0.3,0.6,0.1s0.2-0.3,0-0.6l-0.3-0.4l-0.3,0.2l-0.6-0.8l1.4-1.1l1.9,2.4l-0.6,0.4
			l-0.3-0.1c-0.1,0.4-0.3,0.7-0.6,0.9c-1.1,0.9-1.8,0.5-3-1.2s-1.3-2.5-0.2-3.3c0.5-0.5,1.3-0.6,1.9-0.3c0.2,0.2,0.5,0.4,0.6,0.7
			l-1.1,0.9l-0.2-0.3c-0.2-0.3-0.4-0.3-0.6-0.1s-0.2,0.3,0,0.6l1.5,2L39.3,15.3z"/>
		<polygon class="st2" points="42.6,14.7 39.4,10.4 40.5,9.5 43.8,13.8 42.6,14.7 		"/>
		<g>
			<defs>
				<polygon id="SVGID_00000177444863612133646270000006945866009270803604_" points="50,50 0,50 0,0 50,0 50,50 				"/>
			</defs>
			<clipPath id="SVGID_00000057143480605004387280000003159260736092753839_">
				<use xlink:href="#SVGID_00000177444863612133646270000006945866009270803604_"  style="overflow:visible;"/>
			</clipPath>
			<g style="clip-path:url(#SVGID_00000057143480605004387280000003159260736092753839_);">
				<path class="st2" d="M45.1,8.9c0.4-0.3,0.5-0.5,0.1-0.9s-0.5-0.4-0.9-0.1L45.1,8.9L45.1,8.9z M45.8,12.3l-3.3-4.3l1.3-1
					c0.9-0.7,1.6-0.7,2.4,0.3s0.6,1.6-0.4,2.4l-0.2,0.1l1.3,1.7L45.8,12.3L45.8,12.3z"/>
				<polygon class="st2" points="48.9,10 45.6,5.7 48.1,3.8 48.8,4.7 47.4,5.7 48,6.4 49.1,5.6 49.8,6.5 48.7,7.4 49.3,8.2 
					50.7,7.1 51.4,8.1 48.9,10 				"/>
				<path class="st2" d="M52,5.8C52.2,6,52.4,6,52.6,5.9s0.2-0.3,0-0.6l-0.3-0.4L52,5.1l-0.6-0.8l1.4-1.1l1.8,2.4L54,6.1L53.7,6
					c-0.1,0.4-0.3,0.7-0.6,0.9c-1.1,0.8-1.8,0.5-3-1.2s-1.3-2.5-0.2-3.3c0.5-0.5,1.3-0.6,1.9-0.3c0.2,0.2,0.5,0.4,0.6,0.7l-1.1,0.9
					l-0.2-0.3c-0.2-0.3-0.4-0.3-0.6-0.1s-0.2,0.3,0,0.6L52,5.8L52,5.8z"/>
				<polygon class="st2" points="2.6,54 -0.6,49.6 0.5,48.8 3.8,53.1 2.6,54 				"/>
				<path class="st2" d="M5.1,48.2c0.4-0.3,0.5-0.5,0.1-1s-0.5-0.4-0.9-0.1L5.1,48.2L5.1,48.2z M5.8,51.5l-3.3-4.3l1.3-1
					c0.9-0.7,1.6-0.7,2.4,0.3s0.6,1.6-0.4,2.4L5.7,49l1.3,1.7L5.8,51.5L5.8,51.5z"/>
			</g>
		</g>
		<polygon class="st2" points="8.9,49.3 5.6,44.9 8.1,43.1 8.8,44 7.4,45 8,45.7 9.1,44.9 9.8,45.8 8.7,46.6 9.3,47.5 10.7,46.4 
			11.4,47.3 8.9,49.3 		"/>
		<path class="st2" d="M12,45c0.2,0.3,0.4,0.3,0.6,0.1s0.2-0.3,0-0.6l-0.3-0.4L12,44.4l-0.6-0.8l1.4-1.1l1.8,2.4L14,45.3l-0.3-0.1
			c-0.1,0.4-0.3,0.7-0.6,0.9c-1.1,0.8-1.8,0.5-3-1.2s-1.3-2.5-0.2-3.4c0.5-0.5,1.3-0.6,1.9-0.3c0.2,0.2,0.5,0.4,0.6,0.7l-1.1,0.9
			l-0.2-0.3c-0.2-0.3-0.4-0.3-0.6-0.1s-0.2,0.3,0,0.6L12,45L12,45z"/>
		<polygon class="st2" points="15.3,44.4 12.1,40.1 13.2,39.2 16.4,43.5 15.3,44.4 		"/>
		<path class="st2" d="M17.8,38.7c0.4-0.3,0.5-0.5,0.1-1s-0.5-0.4-0.9-0.1L17.8,38.7L17.8,38.7z M18.5,42l-3.3-4.3l1.3-1
			C17.5,36,18.2,36,19,37s0.6,1.6-0.4,2.4l-0.2,0.1l1.3,1.7L18.5,42z"/>
		<polygon class="st2" points="21.5,39.7 18.3,35.4 20.8,33.5 21.4,34.4 20.1,35.4 20.7,36.1 21.8,35.3 22.5,36.3 21.4,37.1 
			22,37.9 23.4,36.9 24.1,37.8 21.5,39.7 		"/>
		<path class="st2" d="M24.7,35.5c0.2,0.3,0.4,0.3,0.6,0.1s0.2-0.3,0-0.6L25,34.6l-0.3,0.2L24.1,34l1.4-1l1.8,2.4l-0.6,0.4l-0.3-0.1
			c-0.1,0.4-0.3,0.7-0.6,0.9c-1.1,0.8-1.7,0.5-3-1.2s-1.3-2.5-0.2-3.4c0.5-0.5,1.3-0.6,1.9-0.3c0.2,0.2,0.5,0.4,0.6,0.7L24,33.3
			l-0.2-0.3c-0.2-0.3-0.4-0.3-0.6-0.1s-0.2,0.3,0,0.6L24.7,35.5L24.7,35.5z"/>
		<polygon class="st2" points="28,34.8 24.7,30.5 25.9,29.7 29.1,34 28,34.8 		"/>
		<path class="st2" d="M30.4,29.1c0.4-0.3,0.5-0.5,0.1-0.9s-0.5-0.4-0.9-0.1L30.4,29.1L30.4,29.1z M31.2,32.4L28,28.1l1.3-1
			c0.9-0.7,1.6-0.8,2.4,0.3c0.7,1,0.6,1.6-0.4,2.4l-0.2,0.1l1.3,1.7L31.2,32.4L31.2,32.4z"/>
		<polygon class="st2" points="34.2,30.1 31,25.8 33.5,24 34.1,24.9 32.8,25.9 33.4,26.6 34.4,25.8 35.1,26.7 34,27.5 34.7,28.4 
			36.1,27.3 36.8,28.2 34.2,30.1 		"/>
		<path class="st2" d="M37.4,25.9c0.2,0.3,0.4,0.3,0.6,0.1s0.2-0.3,0-0.6l-0.3-0.4l-0.3,0.2l-0.6-0.8l1.4-1.1l1.8,2.4l-0.6,0.4
			L39,26.1c-0.1,0.4-0.3,0.7-0.6,0.9c-1.1,0.9-1.8,0.5-3-1.2s-1.3-2.5-0.2-3.4c0.5-0.5,1.3-0.6,1.9-0.3c0.3,0.2,0.5,0.4,0.6,0.7
			l-1.1,0.9l-0.2-0.3c-0.2-0.3-0.4-0.3-0.6-0.1s-0.2,0.3,0,0.6L37.4,25.9L37.4,25.9z"/>
		<polygon class="st2" points="40.7,25.3 37.4,21 38.6,20.1 41.8,24.4 40.7,25.3 		"/>
		<path class="st2" d="M43.1,19.5c0.4-0.3,0.5-0.5,0.1-0.9s-0.5-0.4-0.9-0.1L43.1,19.5L43.1,19.5z M43.9,22.9l-3.3-4.3l1.3-1
			c0.9-0.7,1.6-0.8,2.4,0.3s0.6,1.6-0.4,2.4l-0.2,0.1L45,22L43.9,22.9L43.9,22.9z"/>
		<g>
			<defs>
				<polygon id="SVGID_00000005967891115490767600000002569551632049034657_" points="50,50 0,50 0,0 50,0 50,50 				"/>
			</defs>
			<clipPath id="SVGID_00000035515089876447248250000015972494240482578615_">
				<use xlink:href="#SVGID_00000005967891115490767600000002569551632049034657_"  style="overflow:visible;"/>
			</clipPath>
			<g style="clip-path:url(#SVGID_00000035515089876447248250000015972494240482578615_);">
				<polygon class="st2" points="46.9,20.6 43.7,16.3 46.1,14.4 46.8,15.3 45.5,16.3 46,17 47.1,16.2 47.8,17.1 46.7,18 47.4,18.8 
					48.8,17.8 49.5,18.7 46.9,20.6 				"/>
				<path class="st2" d="M50.1,16.4c0.2,0.3,0.4,0.3,0.6,0.1s0.2-0.3,0-0.6l-0.3-0.4L50,15.7l-0.6-0.8l1.4-1.1l1.8,2.4l-0.6,0.4
					l-0.3-0.1c-0.1,0.4-0.3,0.7-0.6,0.9c-1.1,0.9-1.7,0.5-3-1.2s-1.3-2.5-0.2-3.4c0.5-0.5,1.3-0.6,1.9-0.3c0.2,0.2,0.5,0.4,0.6,0.7
					l-1.1,0.9l-0.2-0.3c-0.2-0.3-0.4-0.3-0.6-0.1s-0.2,0.3,0,0.6L50.1,16.4L50.1,16.4z"/>
				<path class="st2" d="M15.8,49.3c0.4-0.3,0.5-0.5,0.1-1s-0.5-0.4-0.9-0.1L15.8,49.3L15.8,49.3z M16.6,52.6l-3.3-4.3l1.3-1
					c0.9-0.7,1.6-0.7,2.4,0.3s0.6,1.6-0.4,2.4L16.4,50l1.3,1.7L16.6,52.6L16.6,52.6z"/>
				<polygon class="st2" points="19.6,50.3 16.3,46 18.8,44.1 19.5,45 18.2,46 18.7,46.8 19.8,45.9 20.5,46.9 19.4,47.7 20,48.5 
					21.4,47.5 22.1,48.4 19.6,50.3 				"/>
			</g>
		</g>
		<path class="st2" d="M22.8,46.1c0.2,0.3,0.4,0.3,0.6,0.1s0.2-0.3,0-0.6L23,45.2l-0.3,0.2l-0.6-0.8l1.4-1.1l1.8,2.4l-0.6,0.4
			l-0.3-0.1c-0.1,0.4-0.3,0.7-0.6,0.9c-1.1,0.8-1.7,0.5-3-1.2s-1.3-2.5-0.2-3.3c0.5-0.5,1.3-0.6,1.9-0.3c0.2,0.2,0.5,0.4,0.6,0.7
			L22.1,44l-0.2-0.3c-0.2-0.3-0.4-0.3-0.6-0.1s-0.2,0.3,0,0.6L22.8,46.1L22.8,46.1z"/>
		<polygon class="st2" points="26,45.5 22.8,41.1 23.9,40.3 27.2,44.6 26,45.5 		"/>
		<path class="st2" d="M28.5,39.7c0.4-0.3,0.5-0.5,0.1-0.9s-0.5-0.4-0.9-0.1L28.5,39.7L28.5,39.7z M29.3,43L26,38.7l1.3-1
			c0.9-0.7,1.6-0.8,2.4,0.3s0.6,1.6-0.4,2.4l-0.2,0.2l1.3,1.7L29.3,43L29.3,43z"/>
		<polygon class="st2" points="32.3,40.8 29,36.4 31.5,34.6 32.2,35.5 30.8,36.5 31.4,37.2 32.5,36.4 33.2,37.3 32.1,38.1 32.7,39 
			34.1,37.9 34.8,38.8 32.3,40.8 		"/>
		<path class="st2" d="M35.4,36.5c0.2,0.3,0.4,0.3,0.6,0.1s0.2-0.3,0-0.6l-0.3-0.4l-0.3,0.2l-0.6-0.8l1.5-1.1l1.8,2.4l-0.6,0.4
			l-0.3-0.1c-0.1,0.4-0.3,0.7-0.6,0.9c-1.1,0.8-1.8,0.5-3-1.2s-1.3-2.5-0.2-3.3c0.5-0.5,1.3-0.6,1.9-0.3c0.2,0.2,0.5,0.4,0.6,0.7
			l-1.1,0.8l-0.2-0.3c-0.2-0.3-0.4-0.3-0.6-0.1s-0.2,0.3,0,0.6L35.4,36.5L35.4,36.5z"/>
		<polygon class="st2" points="38.7,35.9 35.5,31.6 36.6,30.7 39.9,35 38.7,35.9 		"/>
		<path class="st2" d="M41.2,30.1c0.4-0.3,0.5-0.5,0.1-0.9s-0.5-0.4-0.9-0.1L41.2,30.1L41.2,30.1z M41.9,33.5l-3.3-4.3l1.3-1
			c0.9-0.7,1.6-0.8,2.4,0.3S43,30,42,30.8L41.8,31l1.2,1.7L41.9,33.5L41.9,33.5z"/>
		<g>
			<defs>
				<polygon id="SVGID_00000076595957633049139920000018139555776229732020_" points="50,50 0,50 0,0 50,0 50,50 				"/>
			</defs>
			<clipPath id="SVGID_00000031165393083570796140000016943606520695256507_">
				<use xlink:href="#SVGID_00000076595957633049139920000018139555776229732020_"  style="overflow:visible;"/>
			</clipPath>
			<g style="clip-path:url(#SVGID_00000031165393083570796140000016943606520695256507_);">
				<polygon class="st2" points="45,31.2 41.7,26.9 44.2,25 44.9,25.9 43.5,26.9 44.1,27.6 45.2,26.8 45.9,27.7 44.8,28.6 
					45.4,29.4 46.8,28.4 47.5,29.3 45,31.2 				"/>
				<path class="st2" d="M48.1,27c0.2,0.3,0.4,0.3,0.6,0.1s0.2-0.3,0-0.6l-0.3-0.4l-0.3,0.2l-0.6-0.8l1.4-1.1l1.8,2.4l-0.6,0.4
					l-0.3-0.1c-0.1,0.4-0.3,0.7-0.6,0.9c-1.1,0.9-1.7,0.5-3-1.2s-1.3-2.5-0.2-3.4c0.5-0.5,1.3-0.6,1.9-0.3c0.2,0.2,0.5,0.4,0.6,0.7
					l-1.1,0.9l-0.2-0.3c-0.2-0.3-0.4-0.3-0.6-0.1s-0.2,0.3,0,0.6L48.1,27L48.1,27z"/>
				<polygon class="st2" points="51.4,26.3 48.2,22 49.3,21.2 52.5,25.5 51.4,26.3 				"/>
				<path class="st2" d="M26.5,50.3c0.4-0.3,0.5-0.5,0.1-1s-0.5-0.4-0.9-0.1L26.5,50.3L26.5,50.3z M27.3,53.6l-3.3-4.3l1.3-1
					c0.9-0.7,1.6-0.8,2.4,0.3s0.6,1.6-0.4,2.4l-0.2,0.2l1.3,1.7L27.3,53.6L27.3,53.6z"/>
				<polygon class="st2" points="30.3,51.4 27.1,47 29.5,45.2 30.2,46.1 28.9,47.1 29.5,47.8 30.5,47 31.2,47.9 30.1,48.7 
					30.8,49.6 32.2,48.5 32.9,49.5 30.3,51.4 				"/>
			</g>
		</g>
		<path class="st2" d="M33.5,47.2c0.2,0.3,0.4,0.3,0.6,0.1s0.2-0.3,0-0.6l-0.3-0.4l-0.3,0.2l-0.6-0.8l1.4-1.1l1.8,2.4l-0.6,0.4
			l-0.3-0.1c-0.1,0.4-0.3,0.7-0.6,0.9c-1.1,0.8-1.8,0.5-3-1.2s-1.3-2.5-0.2-3.3c0.5-0.5,1.3-0.6,1.9-0.3c0.2,0.2,0.5,0.4,0.6,0.7
			L32.8,45l-0.2-0.3c-0.2-0.3-0.4-0.3-0.6-0.1s-0.2,0.3,0,0.6L33.5,47.2L33.5,47.2z"/>
		<polygon class="st2" points="36.8,46.5 33.5,42.2 34.7,41.3 37.9,45.6 36.8,46.5 		"/>
		<path class="st2" d="M39.2,40.8c0.4-0.3,0.5-0.5,0.1-0.9s-0.5-0.4-0.9-0.1L39.2,40.8L39.2,40.8z M40,44.1l-3.3-4.3l1.3-1
			c0.9-0.7,1.6-0.8,2.4,0.3s0.7,1.6-0.4,2.4l-0.2,0.2l1.3,1.7L40,44.1z"/>
		<polygon class="st2" points="43,41.8 39.8,37.5 42.2,35.6 42.9,36.5 41.6,37.5 42.1,38.3 43.2,37.4 43.9,38.3 42.8,39.2 43.5,40 
			44.9,39 45.5,39.9 43,41.8 		"/>
		<g>
			<defs>
				<polygon id="SVGID_00000119084801857680549610000010101648240871320235_" points="50,50 0,50 0,0 50,0 50,50 				"/>
			</defs>
			<clipPath id="SVGID_00000032629230985559204150000013595403932078158268_">
				<use xlink:href="#SVGID_00000119084801857680549610000010101648240871320235_"  style="overflow:visible;"/>
			</clipPath>
			<g style="clip-path:url(#SVGID_00000032629230985559204150000013595403932078158268_);">
				<path class="st2" d="M46.2,37.6c0.2,0.3,0.4,0.3,0.6,0.1s0.2-0.3,0-0.6l-0.3-0.4l-0.3,0.2l-0.6-0.8L47,35l1.8,2.4l-0.6,0.4
					l-0.3-0.1c-0.1,0.4-0.3,0.7-0.6,0.9c-1.1,0.9-1.7,0.5-3-1.2S43,35,44,34.2c0.5-0.5,1.3-0.6,2-0.3c0.2,0.2,0.5,0.4,0.6,0.7
					l-1.1,0.9l-0.2-0.3c-0.2-0.3-0.4-0.3-0.6-0.1s-0.2,0.3,0,0.6L46.2,37.6L46.2,37.6z"/>
				<polygon class="st2" points="49.5,37 46.2,32.6 47.3,31.8 50.6,36.1 49.5,37 				"/>
				<path class="st2" d="M51.9,31.2c0.4-0.3,0.5-0.5,0.1-0.9s-0.5-0.4-0.9-0.1L51.9,31.2L51.9,31.2z M52.7,34.5l-3.3-4.3l1.3-1
					c0.9-0.7,1.6-0.8,2.4,0.3s0.7,1.6-0.4,2.4L52.5,32l1.3,1.7L52.7,34.5L52.7,34.5z"/>
				<path class="st2" d="M38,50.8c0.4-0.3,0.5-0.5,0.1-1s-0.5-0.4-0.9-0.1L38,50.8L38,50.8z M38.8,54.1l-3.3-4.3l1.3-1
					c0.9-0.7,1.6-0.7,2.4,0.3s0.6,1.6-0.4,2.4l-0.2,0.2l1.3,1.7L38.8,54.1L38.8,54.1z"/>
				<polygon class="st2" points="41.8,51.9 38.6,47.5 41,45.7 41.7,46.6 40.4,47.6 40.9,48.3 42,47.5 42.7,48.4 41.6,49.2 
					42.3,50.1 43.6,49 44.3,50 41.8,51.9 				"/>
			</g>
		</g>
		<path class="st2" d="M45,47.7c0.2,0.3,0.4,0.3,0.6,0.1s0.2-0.3,0-0.6l-0.3-0.4L45,47l-0.6-0.8l1.4-1.1l1.8,2.4L47,48l-0.3-0.1
			c-0.1,0.4-0.3,0.7-0.6,0.9c-1.1,0.8-1.8,0.5-3-1.2s-1.3-2.6-0.2-3.4c0.5-0.5,1.3-0.6,1.9-0.2c0.2,0.2,0.5,0.4,0.6,0.7l-1.1,0.9
			l-0.2-0.3c-0.2-0.3-0.4-0.3-0.6-0.1s-0.2,0.3,0,0.6L45,47.7L45,47.7z"/>
		<g>
			<defs>
				<polygon id="SVGID_00000119109015459894844570000012203457914971601802_" points="50,50 0,50 0,0 50,0 50,50 				"/>
			</defs>
			<clipPath id="SVGID_00000034078870029065634870000001867581012191743914_">
				<use xlink:href="#SVGID_00000119109015459894844570000012203457914971601802_"  style="overflow:visible;"/>
			</clipPath>
			<g style="clip-path:url(#SVGID_00000034078870029065634870000001867581012191743914_);">
				<polygon class="st2" points="48.2,47 45,42.7 46.1,41.8 49.4,46.1 48.2,47 				"/>
				<path class="st2" d="M50.7,41.3c0.4-0.3,0.5-0.5,0.1-1s-0.5-0.4-0.9-0.1L50.7,41.3L50.7,41.3z M51.5,44.6l-3.3-4.3l1.3-1
					c0.9-0.7,1.6-0.7,2.4,0.3s0.7,1.6-0.4,2.4L51.3,42l1.3,1.7L51.5,44.6L51.5,44.6z"/>
			</g>
		</g>
		<polygon class="st11" points="35.4,7.7 33.3,10 28.4,5.9 28.3,7.6 29,8.3 15.4,24.7 15.3,32.2 15.9,32.6 23.2,31.6 37.1,15.1 
			37.7,15.6 39.7,15.4 34.7,11.2 36.7,8.8 39,10.8 41.3,10.6 33,3.6 33.2,5.8 35.4,7.7 35.4,7.7 		"/>
		<path class="st12" d="M26.7,26.2l-3.8,4.5L16,31.8v-6.9c0.9,0.5,1.9,0.9,2.9,1.2c1.9,0.6,2.3-0.2,3.9-0.1
			C24.4,25.7,26.3,25.9,26.7,26.2L26.7,26.2z M36.7,8.8l2.3,1.9l2.3-0.2l-8.3-7l0.2,2.2l2.2,1.8l-2,2.4l-5-4.2l-0.1,1.8L29,8.3
			L15.2,24.7L15,32.2l-6.2,8.2l7-7.5l7.4-1.4l5-6l-0.3-0.3l-1.2-1L25,22.8l0.4-0.5c0,0,2.5,2.1,3.2,2.8l1.2-1.4l-0.3-0.3
			c-0.3-0.3-0.8-0.7-1.2-1c-0.9-0.7-1.8-1.5-1.8-1.5l0.4-0.5c0,0,2.4,1.9,3.3,2.7l1.1-1.3L31,21.7l-1.2-1l-1.6-1.5l0.4-0.5l1.6,1.4
			c0.6,0.6,1.4,1.2,1.6,1.4l1.1-1.3l-1.5-1.3l-1.7-1.5l0.4-0.5c0,0,2.4,2.2,3.2,2.8l1.3-1.5l0,0c-0.1-0.1-0.2-0.2-0.4-0.3
			s-0.7-0.6-1.2-1l-1.7-1.4l0.4-0.5c0,0,2.7,2.1,3.3,2.7l2.2-2.6l0.5,0.4l2-0.2l-5-4.2l2-2.4L36.7,8.8z"/>
		<polygon class="st0" points="35.4,7.7 33.3,10.1 28.4,5.9 28.3,7.6 29,8.3 15.4,24.7 15.3,32.2 15.9,32.6 23.2,31.6 37.1,15.1 
			37.7,15.6 39.7,15.4 34.7,11.2 36.7,8.8 39,10.8 41.3,10.6 33,3.6 33.2,5.8 35.4,7.7 35.4,7.7 		"/>
		<path class="st11" d="M26.7,26.2l-3.8,4.5L16,31.8v-6.9c0.9,0.5,1.9,0.9,2.9,1.2c1.9,0.6,2.3-0.2,3.9-0.1
			C24.4,25.7,26.3,25.9,26.7,26.2L26.7,26.2z M36.7,8.8l2.3,1.9l2.3-0.2l-8.3-7l0.2,2.2l2.2,1.8l-2,2.4l-5-4.2l-0.1,1.8L29,8.3
			L15.2,24.7L15,32.2l-6.2,8.2l7-7.5l7.4-1.4l5-6l-0.3-0.3l-1.2-1L25,22.8l0.4-0.5c0,0,2.5,2.1,3.2,2.8l1.2-1.4l-0.3-0.3
			c-0.3-0.3-0.8-0.7-1.2-1c-0.9-0.7-1.8-1.5-1.8-1.5l0.4-0.5c0,0,2.4,1.9,3.3,2.7l1.1-1.3L31,21.7l-1.2-1l-1.6-1.5l0.4-0.5l1.6,1.4
			c0.6,0.6,1.4,1.2,1.6,1.4l1.1-1.3l-1.5-1.3l-1.7-1.5l0.4-0.5c0,0,2.4,2.2,3.2,2.8l1.3-1.5l0,0c-0.1-0.1-0.2-0.2-0.4-0.3
			s-0.7-0.6-1.2-1l-1.7-1.4l0.4-0.5c0,0,2.7,2.1,3.3,2.7l2.2-2.6l0.5,0.4l2-0.2l-5-4.2l2-2.4L36.7,8.8z"/>
		<path class="st0" d="M49,49H1V1h48V49z M0,0v50h50V0H0z"/>
		<polygon class="st0" points="50,50 0,50 0,42 50,42 50,50 		"/>
		<path class="st11" d="M17.2,47.5c0.6,0,0.6-0.2,0.6-1.2v-1c0-1,0-1.2-0.6-1.2V47.5L17.2,47.5z M15.9,43.2h1.3
			c1.4,0,1.9,0.4,1.9,2.7c0,2.1-0.3,2.7-1.9,2.7h-1.3C15.9,48.6,15.9,43.2,15.9,43.2z"/>
		<path class="st11" d="M20.9,45.5h0.2c0.4,0,0.5-0.2,0.5-0.6s-0.1-0.7-0.5-0.7h-0.2V45.5z M19.7,48.6v-5.4h1.6
			c1.1,0,1.5,0.4,1.5,1.5c0,0.9-0.4,1.1-0.6,1.2l0,0c0.5,0.1,0.6,0.8,0.6,1.5c0,0.4,0.1,0.8,0.2,1.1h-1.3c-0.1-0.4-0.2-0.7-0.1-1.1
			c0-0.9-0.1-1.1-0.5-1.1h-0.2v2.2H19.7z"/>
		<path class="st11" d="M26.6,43.2v4.1c0,0.9-0.5,1.4-1.6,1.4s-1.6-0.5-1.6-1.4v-4.1h1.3v3.9c0,0.3,0.1,0.4,0.3,0.4s0.3-0.2,0.3-0.4
			v-3.9H26.6z"/>
		<path class="st11" d="M28.4,47.1c0,0.3,0.1,0.5,0.3,0.5s0.3-0.1,0.3-0.5v-0.5h-0.3v-1h1.6v3h-0.6l-0.2-0.3
			c-0.2,0.2-0.6,0.4-0.9,0.4c-1.3,0-1.5-0.7-1.5-2.8s0.4-2.8,1.6-2.8c0.7-0.1,1.3,0.4,1.5,1c0.1,0.3,0.1,0.6,0.1,0.9H29v-0.3
			c0-0.3-0.1-0.5-0.3-0.5s-0.3,0.1-0.3,0.5V47.1L28.4,47.1z"/>
		<path class="st11" d="M32.9,44.9c0-0.6-0.2-0.8-0.5-0.8c-0.2,0-0.3,0.1-0.4,0.3c0,0,0,0,0,0c0,0.7,2,1.2,2,2.7
			c0,1.1-0.7,1.5-1.7,1.5c-1.3,0-1.6-0.9-1.6-1.9H32V47c0,0.4,0.2,0.6,0.5,0.6c0.2,0,0.4-0.1,0.4-0.4c0,0,0,0,0-0.1
			c0-0.7-2-1.3-2-2.7c0-0.8,0.6-1.4,1.4-1.4c0,0,0.1,0,0.1,0c0.8,0,1.5,0.6,1.5,1.5c0,0,0,0.1,0,0.1v0.2H32.9z"/>
		<path class="st11" d="M48,4.9h-0.5V2.6l0,0l-0.8,2.3h-0.4l-0.8-2.3l0,0v2.3h-0.5V2h0.7l0.7,2.1l0,0L47.3,2H48V4.9z M44.8,2v0.4H44
			v2.5h-0.5V2.4h-0.8V2H44.8z"/>
	</g>
</g>
</svg>
